<?xml version="1.0" encoding="utf-8"?>
<!-- Generator: Adobe Illustrator 15.0.0, SVG Export Plug-In . SVG Version: 6.00 Build 0)  -->
<!DOCTYPE svg PUBLIC "-//W3C//DTD SVG 1.1//EN" "http://www.w3.org/Graphics/SVG/1.1/DTD/svg11.dtd">
<svg version="1.1" id="グループ_125" xmlns="http://www.w3.org/2000/svg" xmlns:xlink="http://www.w3.org/1999/xlink" x="0px"
	 y="0px" width="74.053px" height="90.806px" viewBox="0 3.666 74.053 90.806" enable-background="new 0 3.666 74.053 90.806"
	 xml:space="preserve">
<g id="グループ_83">
	<path id="パス_117" d="M48.236,82.787l-0.1-3.672c0,0-1.416-0.808,3.431-1.111c4.847-0.303,14.339-5.149,14.339-5.149
		l-17.773-2.827v-5.423c10.301-0.779,17.369-9.017,17.369-9.017H52.273v-3.231h-5.654v-3.534h6.764v-1.918
		c2.828-0.4,10.301-4.746,10.301-4.746c-7.674-0.909-22.721-11.41-22.721-11.41V27.82h-2.563v-4.891h2.013v-0.77h-2.013v-1.112
		h2.013v-0.769h-2.013v-1.112h2.013v-0.77h-2.013v-1.111h2.013v-0.77h-2.013v-1.112h2.013v-0.771h-2.013v-1.11h2.013v-0.771h-2.013
		V3.666h-1.045v9.086h-1.818v0.771h1.818v1.11h-1.818v0.771h1.818v1.111h-1.818v0.77h1.818v1.112h-1.818v0.77h1.818v1.112h-1.818
		v0.769h1.818v1.112h-1.818v0.77h1.818v4.891h-2.651v2.828c0,0-3.433,2.423-7.776,5.452c-4.343,3.028-15.045,6.366-15.045,6.366
		c2.727,2.222,5.452,4.039,5.452,4.039l4.746,0.809v2.322h5.291v3.028h-5.492v3.03l-11.714,0.5c9.391,6.765,15.147,8.28,15.147,8.28
		v5.453l-12.117,0.605l-5.049,1.11c4.645,4.342,15.753,7.876,15.753,7.876v5.352h-0.009v9.601h24.346V82.787z"/>
</g>
</svg>
