<svg xmlns="http://www.w3.org/2000/svg" xmlns:xlink="http://www.w3.org/1999/xlink" width="73.711" height="112.083" viewBox="0 0 73.711 112.083">
  <defs>
    <clipPath id="clip-path">
      <rect id="長方形_140" data-name="長方形 140" width="73.711" height="112.083" fill="#e78f81"/>
    </clipPath>
  </defs>
  <g id="グループ_88" data-name="グループ 88" transform="translate(0 0)">
    <g id="グループ_87" data-name="グループ 87" transform="translate(0 0)" clip-path="url(#clip-path)">
      <path id="パス_129" data-name="パス 129" d="M11.563,80.908S5.556,72.36,9.022,66.815c-6.007-1.848-11.783-7.624-4.39-9.934.693,3.7,2.772,8.086,6.007,7.855,3.7-3.465,4.39-3.928,7.624-3.928s10.4-3,13.862-4.852S44.369,44.636,44.831,42.326s-.462-18.483-.462-18.483l-3.234-4.39,2.772-.231-.231-2.31S37.438,8.364,39.056,7.9s2.079,1.158,3,2.31,3.234,3.234,3.465,1.155.924-9.01,2.079-9.01,3.7,2.079,4.39.924,3.7-5.083,3-2.31A34.623,34.623,0,0,1,53.842,4.9s3.234-1.848,3.465-.924-3.234,5.314-3.234,5.314-7.855,5.545-6.931,7.624,1.155,4.621,2.772,4.621,7.627.231,9.01.924,5.314-1.155,6.007.924-7.4,7.162-7.624,9.472-3,9.934-.231,11.321,4.159,10.165,4.39,11.09,10.165-1.848,10.165-1.848,2.079-1.152,2.079.924a10.361,10.361,0,0,1-.693,3.7A54.354,54.354,0,0,1,71.4,67.508c-1.155,3.7-3.465,5.314-4.852,5.545S64.7,71.9,66.317,69.126s2.31-3.7,2.31-4.621-.231-4.852-.231-4.852-2.079-3.465-5.545.693a25.691,25.691,0,0,1-11.321,7.393c-3.234,1.155-15.017,4.852-15.71,4.852s-9.934,3.931-9.934,6.238,1.155,3-3.7,5.314S7.866,96.387,7.866,96.387s0,9.937-1.386,11.321S.242,113.487.011,111.635s3.234-5.311,3.234-5.311S2.091,93.15,4.4,91.767s7.162-10.858,7.162-10.858" transform="translate(0.001 0.001)" fill="#e78f81"/>
    </g>
  </g>
</svg>
