<?xml version="1.0" encoding="utf-8"?>
<!-- Generator: Adobe Illustrator 15.0.0, SVG Export Plug-In . SVG Version: 6.00 Build 0)  -->
<!DOCTYPE svg PUBLIC "-//W3C//DTD SVG 1.1//EN" "http://www.w3.org/Graphics/SVG/1.1/DTD/svg11.dtd">
<svg version="1.1" id="グループ_125" xmlns="http://www.w3.org/2000/svg" xmlns:xlink="http://www.w3.org/1999/xlink" x="0px"
	 y="0px" width="74.053px" height="90.806px" viewBox="0 3.666 74.053 90.806" enable-background="new 0 3.666 74.053 90.806"
	 xml:space="preserve">
<g id="グループ_126">
	<path id="パス_235" fill="#1A1311" d="M68.932,81.027L59.813,66.89h2.646c0.557,0.01,1.082-0.261,1.395-0.721
		c0.287-0.437,0.287-1.002,0-1.438l-8.611-13.356h2.928c0.555,0.011,1.08-0.261,1.393-0.72c0.287-0.436,0.287-1.002,0-1.438
		l-8.172-12.669c-0.545-0.77-1.613-0.95-2.383-0.403c-0.154,0.111-0.291,0.247-0.402,0.403l-7.03,10.9l2.536,3.927h0.645l-0.324,0.5
		l3.205,4.968l0,0c1.205,1.862,1.205,4.258,0,6.12v0.007c-0.408,0.604-0.926,1.127-1.525,1.541l7.572,11.74v0.006
		c1.201,1.861,1.201,4.254,0,6.116l0,0c-1.121,1.714-3.035,2.739-5.082,2.724h-5.438l-0.7,7.816
		c-0.033,0.408,0.122,0.811,0.42,1.092c0.32,0.301,0.744,0.466,1.184,0.463H55.93c0.439,0.004,0.863-0.162,1.184-0.463
		c0.299-0.281,0.453-0.684,0.422-1.092L56.66,83.18h10.881c0.555,0.011,1.078-0.26,1.393-0.719c0.287-0.438,0.287-1.003,0-1.44"/>
	<path id="パス_236" fill="#1A1311" d="M48.605,81.031c0.66,0.013,1.283-0.31,1.656-0.856c0.342-0.521,0.342-1.193,0-1.714
		L39.404,61.623h3.154c0.662,0.011,1.287-0.312,1.66-0.858c0.34-0.52,0.34-1.193,0-1.713L33.954,43.146h3.487
		c0.662,0.012,1.285-0.31,1.658-0.857c0.342-0.52,0.342-1.193,0-1.713L29.37,25.488c-0.65-0.917-1.92-1.132-2.837-0.481
		c-0.187,0.132-0.35,0.295-0.482,0.481L16.32,40.576c-0.342,0.52-0.342,1.193,0,1.713c0.373,0.547,0.996,0.869,1.658,0.857h3.488
		L11.204,59.052c-0.341,0.52-0.341,1.193,0,1.713c0.374,0.547,0.999,0.869,1.661,0.858h3.153L5.16,78.458
		c-0.341,0.52-0.341,1.193,0,1.714c0.374,0.546,0.997,0.868,1.658,0.856h12.959l-1.04,11.59c-0.04,0.488,0.144,0.966,0.5,1.301
		c0.38,0.357,0.884,0.557,1.407,0.552h14.13c0.522,0.005,1.026-0.193,1.407-0.552c0.355-0.336,0.539-0.813,0.5-1.301l-1.039-11.588
		H48.605z"/>
</g>
</svg>
