<?xml version="1.0" encoding="utf-8"?>
<!-- Generator: Adobe Illustrator 15.0.0, SVG Export Plug-In . SVG Version: 6.00 Build 0)  -->
<!DOCTYPE svg PUBLIC "-//W3C//DTD SVG 1.1//EN" "http://www.w3.org/Graphics/SVG/1.1/DTD/svg11.dtd">
<svg version="1.1" id="グループ_125" xmlns="http://www.w3.org/2000/svg" xmlns:xlink="http://www.w3.org/1999/xlink" x="0px"
	 y="0px" width="74.053px" height="90.806px" viewBox="0 3.666 74.053 90.806" enable-background="new 0 3.666 74.053 90.806"
	 xml:space="preserve">
<path id="パス_234" fill="#1A1311" d="M13.436,45.457c0.34,1.91,1.525,7.059,4.8,10.608c1.483,1.6,3.383,3.361,5.222,5.061
	l1.062,0.984c0.748,0.746,1.438,1.549,2.064,2.4c0.372,4.533,0.43,9.088,0.175,13.631l-3.107,12l-3.2,2.898
	c-0.332,0.311-0.349,0.83-0.039,1.162c0.152,0.162,0.364,0.256,0.586,0.26h6.38c0.253,0,0.493-0.115,0.649-0.314
	c0.153-0.199,0.208-0.455,0.151-0.699l-0.369-1.5c0.18-0.727,0.543-2.012,0.979-3.557c1.3-4.6,2.478-8.873,2.859-11.291
	c0.036,0.422,0.1,0.842,0.1,1.264v11.801l-3.3,2.859c-0.343,0.297-0.379,0.814-0.082,1.158c0.156,0.18,0.383,0.283,0.621,0.281
	h7.292c0.252,0.002,0.491-0.115,0.645-0.314c0.155-0.197,0.212-0.455,0.154-0.699l-0.857-3.518
	c-0.047-0.184-0.157-0.346-0.311-0.455l1.017-22.045c2.932,0.52,5.902,0.785,8.881,0.793c3.303,0.051,6.596-0.346,9.791-1.178
	c0.523,0.371,1.621,1.174,2.9,2.172c0.471,2.949,0.643,5.939,0.51,8.924L55.9,90.141l-3.199,2.898
	c-0.338,0.305-0.363,0.824-0.061,1.162c0.156,0.172,0.379,0.271,0.611,0.27h6.381c0.252,0.002,0.492-0.115,0.648-0.314
	c0.152-0.199,0.209-0.455,0.15-0.699l-0.371-1.5c0.109-0.453,0.273-1.115,0.473-1.914c1.414-5.699,2.92-11.951,2.898-13.99
	c0.014-0.768,0.08-1.535,0.201-2.295c1.377,1.502,2.637,3.107,3.77,4.801l-2.377,11.6l-3.184,2.871
	c-0.338,0.305-0.363,0.824-0.059,1.162c0.154,0.172,0.377,0.271,0.609,0.27h6.381c0.014-0.002,0.027-0.002,0.041,0
	c0.455,0,0.822-0.367,0.822-0.82c0.002-0.154-0.041-0.305-0.125-0.434l-0.311-1.262c0.107-0.453,0.271-1.115,0.471-1.914
	c1.416-5.699,2.92-11.951,2.9-13.99c-0.18-1.641-0.758-3.215-1.682-4.582c-0.955-1.619-1.717-3.344-2.27-5.141
	c-0.162-0.629-0.215-1.281-0.154-1.926c0.107-0.115,0.205-0.225,0.332-0.357c1.424-1.354,2.488-3.039,3.102-4.906l0.395,0.715
	c0.217,0.398,0.715,0.545,1.113,0.328c0.215-0.117,0.365-0.324,0.412-0.564c1.414-7.23-3.672-13.069-13.6-15.614
	c-2.563-0.635-5.193-0.942-7.832-0.914c-4.262,0.105-8.508,0.57-12.693,1.389c-2.188,0.369-4.258,0.72-6.017,0.87
	c-0.9,0.077-1.685,0.115-2.378,0.115c-3.819,0-4.455-1.091-6.152-4.012l-0.119-0.2c-1.711-2.937-3.5-5.443-4.182-6.377l1.944-4.478
	c0.106-0.247,0.086-0.531-0.055-0.761c-0.144-0.228-0.389-0.372-0.658-0.388l-0.353-0.01c-1.734-0.051-3.381,0.759-4.4,2.163H17.27
	c-0.151-0.706-0.34-1.5-0.632-2.466c0.709-1.312,2.314-4.59,2.24-7.34c-0.023-0.891-0.752-1.6-1.643-1.6H17.19
	c-0.907,0.023-1.624,0.777-1.6,1.685c0,0.001,0,0.002,0,0.003c-0.031,0.994-0.234,1.976-0.6,2.9
	c-1.011-2.263-2.241-4.421-3.672-6.443c-0.513-0.748-1.537-0.939-2.286-0.426c-0.749,0.514-0.939,1.537-0.426,2.285
	c0.009,0.014,0.019,0.027,0.028,0.041c0.729,1.039,1.4,2.118,2.009,3.231c-0.923-0.201-1.858-0.341-2.8-0.417
	c-0.906-0.047-1.678,0.649-1.726,1.555c-0.045,0.873,0.601,1.629,1.47,1.719c2.234,0.174,4.786,0.944,5.129,1.544
	c0.522,1.353,0.948,2.74,1.274,4.153c-0.627,0.152-1.236,0.367-1.82,0.642c-1.173,0.631-2.221,1.472-3.091,2.481
	c-0.758,0.942-1.738,1.681-2.853,2.149c-0.067,0.023-6.894,2.351-6.175,4.875l0.1,0.369c0.285,1.106,0.722,2.78,2.911,3.094
	c1.257,0.115,2.519,0.158,3.781,0.13C9.265,45.557,12.124,45.49,13.436,45.457"/>
</svg>
