<svg id="グループ_110" data-name="グループ 110" xmlns="http://www.w3.org/2000/svg" xmlns:xlink="http://www.w3.org/1999/xlink" width="206.495" height="102.951" viewBox="0 0 206.495 102.951">
  <defs>
    <clipPath id="clip-path">
      <rect id="長方形_161" data-name="長方形 161" width="206.495" height="102.951" fill="none"/>
    </clipPath>
  </defs>
  <g id="グループ_109" data-name="グループ 109" clip-path="url(#clip-path)">
    <path id="パス_152" data-name="パス 152" d="M8.26,63.653c7.695,9.874,21.067,15.494,35.384,16.641,12.829,1.027,25.7-.561,38.56-1.136,19.119-.855,19.367,12.576,33.637,21.007.568.336,2.035.815,2.416,1.33C102.065,77.645,131.07,79.927,133.2,80.126l-.043-.008c14.036,1.607,28.148,2.965,41.392-1.358,18.208-5.941,31.145-19.99,30.465-38.206-1.05-28.138-30.985-38.315-57.726-37.935l-.608.01c-15,.3-29.907,2.734-44.9,2.373-33.134-.8-90.37-17.692-99.507,30.572C.088,47.112,2.683,56.5,8.26,63.653M133.327,80.137l-.127-.012a.692.692,0,0,0,.127.012" transform="translate(-0.022 -0.022)" fill="#fff"/>
    <path id="パス_153" data-name="パス 153" d="M8.26,63.653c7.695,9.874,21.067,15.494,35.384,16.641,12.829,1.027,25.7-.561,38.56-1.136,19.119-.855,19.367,12.576,33.637,21.007.568.336,2.035.815,2.416,1.33C102.065,77.645,131.07,79.927,133.2,80.126l-.043-.008c14.036,1.607,28.148,2.965,41.392-1.358,18.208-5.941,31.145-19.99,30.465-38.206-1.05-28.138-30.985-38.315-57.726-37.935l-.608.01c-15,.3-29.907,2.734-44.9,2.373-33.134-.8-90.37-17.692-99.507,30.572C.088,47.112,2.683,56.5,8.26,63.653ZM133.327,80.137l-.127-.012A.692.692,0,0,0,133.327,80.137Z" transform="translate(-0.022 -0.022)" fill="none" stroke="#1a1311" stroke-linecap="round" stroke-linejoin="round" stroke-width="3"/>
  </g>
</svg>
