<svg xmlns="http://www.w3.org/2000/svg" xmlns:xlink="http://www.w3.org/1999/xlink" width="142.543" height="115.299" viewBox="0 0 142.543 115.299">
  <defs>
    <clipPath id="clip-path">
      <rect id="長方形_160" data-name="長方形 160" width="127.185" height="92.735" fill="none"/>
    </clipPath>
  </defs>
  <g id="グループ_108" data-name="グループ 108" transform="translate(17.695 0) rotate(11)">
    <g id="グループ_107" data-name="グループ 107" transform="translate(0 0.001)" clip-path="url(#clip-path)">
      <path id="パス_148" data-name="パス 148" d="M58.114,5.875c13.4-4.281,29.544-6.568,43.028-1.406,19.918,7.621,32.363,35.922,16.335,53.17-6.644,7.151-22.838,9.217-24.71,20.331-.387,2.3-.184,10.085,1.962,11.467-10.413-6.706-22.612-7.318-34.377-4.431-15.476,3.8-31.466,10.017-45.869-.342C2.785,76.252-.832,61.4,2.923,47.891,7.517,31.349,23.811,21.162,38.286,14.049A146.056,146.056,0,0,1,58.114,5.875" transform="translate(0.44 0.44)" fill="#fff"/>
      <path id="パス_149" data-name="パス 149" d="M58.114,5.875c13.4-4.281,29.544-6.568,43.028-1.406,19.918,7.621,32.363,35.922,16.335,53.17-6.644,7.151-22.838,9.217-24.71,20.331-.387,2.3-.184,10.085,1.962,11.467-10.413-6.706-22.612-7.318-34.377-4.431-15.476,3.8-31.466,10.017-45.869-.342C2.785,76.252-.832,61.4,2.923,47.891,7.517,31.349,23.811,21.162,38.286,14.049A146.056,146.056,0,0,1,58.114,5.875Z" transform="translate(0.44 0.44)" fill="none" stroke="#1a1311" stroke-linecap="round" stroke-linejoin="round" stroke-width="3"/>
    </g>
  </g>
</svg>
