<svg xmlns="http://www.w3.org/2000/svg" width="839" height="11" viewBox="0 0 839 11">
  <g id="グループ_44" data-name="グループ 44" transform="translate(-650 -1559)">
    <rect id="長方形_62" data-name="長方形 62" width="29" height="11" transform="translate(650 1559)" fill="#e1ddc8"/>
    <rect id="長方形_74" data-name="長方形 74" width="29" height="11" transform="translate(1082 1559)" fill="#e1ddc8"/>
    <rect id="長方形_69" data-name="長方形 69" width="29" height="11" transform="translate(866 1559)" fill="#e1ddc8"/>
    <rect id="長方形_73" data-name="長方形 73" width="29" height="11" transform="translate(1298 1559)" fill="#e1ddc8"/>
    <rect id="長方形_65" data-name="長方形 65" width="29" height="11" transform="translate(758 1559)" fill="#e1ddc8"/>
    <rect id="長方形_76" data-name="長方形 76" width="29" height="11" transform="translate(1190 1559)" fill="#e1ddc8"/>
    <rect id="長方形_67" data-name="長方形 67" width="29" height="11" transform="translate(974 1559)" fill="#e1ddc8"/>
    <rect id="長方形_71" data-name="長方形 71" width="29" height="11" transform="translate(1406 1559)" fill="#e1ddc8"/>
    <rect id="長方形_63" data-name="長方形 63" width="29" height="11" transform="translate(704 1559)" fill="#e1ddc8"/>
    <rect id="長方形_75" data-name="長方形 75" width="29" height="11" transform="translate(1136 1559)" fill="#e1ddc8"/>
    <rect id="長方形_68" data-name="長方形 68" width="29" height="11" transform="translate(920 1559)" fill="#e1ddc8"/>
    <rect id="長方形_72" data-name="長方形 72" width="29" height="11" transform="translate(1352 1559)" fill="#e1ddc8"/>
    <rect id="長方形_64" data-name="長方形 64" width="29" height="11" transform="translate(812 1559)" fill="#e1ddc8"/>
    <rect id="長方形_77" data-name="長方形 77" width="29" height="11" transform="translate(1244 1559)" fill="#e1ddc8"/>
    <rect id="長方形_66" data-name="長方形 66" width="29" height="11" transform="translate(1028 1559)" fill="#e1ddc8"/>
    <rect id="長方形_70" data-name="長方形 70" width="29" height="11" transform="translate(1460 1559)" fill="#e1ddc8"/>
  </g>
</svg>
