<?xml version="1.0" encoding="utf-8"?>
<!-- Generator: Adobe Illustrator 15.0.0, SVG Export Plug-In . SVG Version: 6.00 Build 0)  -->
<!DOCTYPE svg PUBLIC "-//W3C//DTD SVG 1.1//EN" "http://www.w3.org/Graphics/SVG/1.1/DTD/svg11.dtd">
<svg version="1.1" id="レイヤー_1" xmlns="http://www.w3.org/2000/svg" xmlns:xlink="http://www.w3.org/1999/xlink" x="0px"
	 y="0px" width="53.471px" height="53.469px" viewBox="0 0 53.471 53.469" enable-background="new 0 0 53.471 53.469"
	 xml:space="preserve">
<path id="パス_37" fill="#FFFFFF" d="M15.524,31.768v2.312h2.885v5.718h17.3V34.08h2.885v-2.312H15.524z"/>
<path id="パス_38" fill="#FFFFFF" d="M27.138,20.192c1.799,0,3.258-1.458,3.258-3.258c0-1.799-1.459-3.258-3.258-3.258
	c-1.8,0-3.258,1.458-3.259,3.257C23.88,18.732,25.339,20.191,27.138,20.192"/>
<path id="パス_39" fill="#FFFFFF" d="M18.373,28.064c0.251,0.663,0.991,0.998,1.655,0.747c0.159-0.06,0.305-0.15,0.429-0.268
	l0.069-0.066l1.973-1.867l0.43,4.295h8.409l0.337-3.367l2.552,3.367h2.668c-0.282-0.459-5.185-8.428-5.2-8.446
	c-0.49-0.898-1.438-1.451-2.46-1.434h-4.2c-0.821-0.01-1.604,0.345-2.14,0.968l-2.938,3.215l-1.216-2.633l-0.037-0.077
	c-0.106-0.229-0.295-0.411-0.528-0.51l-1.821-0.777c-0.541-0.228-1.163,0.025-1.392,0.566c-0.214,0.508-0.003,1.097,0.485,1.353
	l1.335,0.691L18.373,28.064z"/>
</svg>
