<?xml version="1.0" encoding="utf-8"?>
<!-- Generator: Adobe Illustrator 15.0.0, SVG Export Plug-In . SVG Version: 6.00 Build 0)  -->
<!DOCTYPE svg PUBLIC "-//W3C//DTD SVG 1.1//EN" "http://www.w3.org/Graphics/SVG/1.1/DTD/svg11.dtd">
<svg version="1.1" id="レイヤー_1" xmlns="http://www.w3.org/2000/svg" xmlns:xlink="http://www.w3.org/1999/xlink" x="0px"
	 y="0px" width="53.471px" height="53.469px" viewBox="0 0 53.471 53.469" enable-background="new 0 0 53.471 53.469"
	 xml:space="preserve">
<path id="パス_43" fill="#FFFFFF" d="M39.88,23.975c0.139-1.799-3.317-1.94-3.317-1.94h-7.09c-0.115-0.587-0.081-1.194,0.1-1.764
	c0.311-0.623,2.075-2.525,0.865-4.808c-1.125-2.123-2.8-1.21-3.011,0.554c-0.21,1.764-2.574,4.335-2.594,5.191
	c-0.034,1.556-0.415,1.556-1.038,2.905c-0.623,1.349-2.489,1.141-2.489,1.141h-3.844V35.32c2.973-0.162,5.952-0.162,8.925,0
	c2.387,0.312,7.264,0.554,9.754-0.312c0.92-0.305,1.498-1.215,1.384-2.178c-0.101-0.75,0.83-0.484,1.106-1.66
	c0.229-0.976-0.208-1.135-0.208-1.592c0-0.311,0.623-0.691,0.727-1.521c0.086-0.686-0.061-1.379-0.415-1.972
	c-0.312-0.623,1.038-0.765,1.141-2.11 M13.662,35.735h2.975v-10.9h-2.975V35.735z"/>
</svg>
