<?xml version="1.0" encoding="utf-8"?>
<!-- Generator: Adobe Illustrator 15.0.0, SVG Export Plug-In . SVG Version: 6.00 Build 0)  -->
<!DOCTYPE svg PUBLIC "-//W3C//DTD SVG 1.1//EN" "http://www.w3.org/Graphics/SVG/1.1/DTD/svg11.dtd">
<svg version="1.1" id="レイヤー_1" xmlns="http://www.w3.org/2000/svg" xmlns:xlink="http://www.w3.org/1999/xlink" x="0px"
	 y="0px" width="53.471px" height="53.469px" viewBox="0 0 53.471 53.469" enable-background="new 0 0 53.471 53.469"
	 xml:space="preserve">
<path id="パス_42" fill="#FFFFFF" d="M39.811,33.393h-4.6c-0.03-0.185-0.082-0.365-0.153-0.539h4.112V17.176H21.623V21.5h-3.882
	c-1.082,0-1.082-0.049-1.77,1.176c-0.687,1.225-1.603,3.4-2.064,4.329c-0.256,0.776-0.34,1.597-0.248,2.409v4.669h3.164
	c0.152,1.363,1.383,2.346,2.747,2.192c1.153-0.13,2.064-1.04,2.193-2.192h1.039v-0.101h7.483c0.095,1.368,1.282,2.4,2.65,2.306
	c1.235-0.086,2.22-1.07,2.306-2.306h4.57L39.811,33.393z M19.294,35.028c-0.675,0-1.222-0.546-1.222-1.221
	c-0.001-0.674,0.545-1.221,1.22-1.221c0.674-0.002,1.222,0.545,1.222,1.219C20.513,34.48,19.968,35.027,19.294,35.028
	 M16.217,28.776h-1.229v-1.968l1.771-3.538h4.03l0.245,3.538C19.228,26.788,17.492,27.498,16.217,28.776 M22.802,32.856h7.665
	c-0.071,0.174-0.123,0.354-0.154,0.539h-7.511V32.856z M32.825,35.029c-0.674,0.034-1.247-0.485-1.281-1.158
	c-0.033-0.673,0.485-1.247,1.158-1.28c0.674-0.034,1.247,0.484,1.281,1.158c0.002,0.042,0.002,0.084,0,0.127
	c-0.037,0.622-0.536,1.117-1.158,1.148"/>
</svg>
