<?xml version="1.0" encoding="utf-8"?>
<!-- Generator: Adobe Illustrator 15.0.0, SVG Export Plug-In . SVG Version: 6.00 Build 0)  -->
<!DOCTYPE svg PUBLIC "-//W3C//DTD SVG 1.1//EN" "http://www.w3.org/Graphics/SVG/1.1/DTD/svg11.dtd">
<svg version="1.1" id="レイヤー_1" xmlns="http://www.w3.org/2000/svg" xmlns:xlink="http://www.w3.org/1999/xlink" x="0px"
	 y="0px" width="53.471px" height="53.469px" viewBox="0 0 53.471 53.469" enable-background="new 0 0 53.471 53.469"
	 xml:space="preserve">
<path id="パス_40" fill="#FFFFFF" d="M15.09,26.735c0,6.431,5.214,11.645,11.645,11.645c6.432,0,11.645-5.214,11.645-11.645
	c0-6.432-5.213-11.646-11.645-11.646C20.304,15.089,15.09,20.303,15.09,26.735 M26.735,17.542c4.045,0.001,7.613,2.644,8.795,6.512
	c-0.201-0.059-0.391-0.118-0.59-0.175c-2.676-0.713-5.436-1.065-8.205-1.05c-2.978-0.02-5.942,0.395-8.8,1.23
	C19.114,20.185,22.687,17.539,26.735,17.542 M29.014,26.375c-0.002,1.26-1.023,2.279-2.284,2.276
	c-1.26-0.002-2.279-1.025-2.277-2.284c0.002-1.259,1.023-2.277,2.282-2.277c1.26,0.001,2.279,1.021,2.279,2.28 M19.343,26.828
	c0.184-0.051,0.374-0.1,0.564-0.144c0.798,0.137,1.577,0.372,2.317,0.699c0.758,0.326,1.44,0.808,2,1.413
	c0.511,0.581,0.851,1.292,0.982,2.056v4.938c-4.174-0.694-7.328-4.159-7.627-8.38c0.554-0.21,1.142-0.405,1.768-0.577 M28.266,35.79
	v-4.928c0.137-0.791,0.496-1.527,1.035-2.121c0.883-0.879,1.986-1.503,3.195-1.808c0.348-0.1,0.699-0.181,1.055-0.244
	c0.795,0.194,1.576,0.437,2.344,0.724C35.594,31.631,32.44,35.096,28.266,35.79"/>
<path id="パス_41" fill="#FFFFFF" d="M26.736,24.696c-0.922-0.001-1.669,0.745-1.669,1.667c-0.001,0.921,0.745,1.669,1.667,1.669
	c0.921,0,1.668-0.746,1.669-1.667c0-0.001,0-0.002,0-0.002C28.401,25.443,27.655,24.697,26.736,24.696"/>
</svg>
