<svg xmlns="http://www.w3.org/2000/svg" xmlns:xlink="http://www.w3.org/1999/xlink" width="53.47" height="53.47" viewBox="0 0 53.47 53.47">
  <defs>
    <clipPath id="clip-path">
      <rect id="長方形_53" data-name="長方形 53" width="26.222" height="21.5" fill="#fff"/>
    </clipPath>
  </defs>
  <g id="グループ_256" data-name="グループ 256" transform="translate(-680.419 -23.765)">
    <rect id="長方形_110" data-name="長方形 110" width="37.809" height="37.809" transform="translate(707.155 23.765) rotate(45)" fill="#e78f81"/>
    <g id="グループ_35" data-name="グループ 35" transform="translate(694.081 38)">
      <g id="グループ_34" data-name="グループ 34" clip-path="url(#clip-path)">
        <path id="パス_43" data-name="パス 43" d="M26.218,9.74C26.356,7.941,22.9,7.8,22.9,7.8h-7.09a3.576,3.576,0,0,1,.1-1.764c.311-.623,2.075-2.525.865-4.808-1.125-2.123-2.8-1.21-3.01.554S11.19,6.117,11.171,6.973c-.034,1.556-.415,1.556-1.038,2.905s-2.49,1.141-2.49,1.141H3.8V21.085a81.907,81.907,0,0,1,8.924,0c2.387.311,7.264.553,9.754-.311a2.042,2.042,0,0,0,1.384-2.179c-.1-.749.83-.484,1.107-1.66.229-.975-.208-1.135-.208-1.591,0-.311.623-.692.726-1.522a3.093,3.093,0,0,0-.415-1.972c-.311-.623,1.038-.765,1.141-2.11M0,21.5H2.974V10.6H0Z" transform="translate(0 0)" fill="#fff"/>
      </g>
    </g>
  </g>
</svg>
