<?xml version="1.0" encoding="utf-8"?>
<!-- Generator: Adobe Illustrator 15.0.0, SVG Export Plug-In . SVG Version: 6.00 Build 0)  -->
<!DOCTYPE svg PUBLIC "-//W3C//DTD SVG 1.1//EN" "http://www.w3.org/Graphics/SVG/1.1/DTD/svg11.dtd">
<svg version="1.1" id="レイヤー_1" xmlns="http://www.w3.org/2000/svg" xmlns:xlink="http://www.w3.org/1999/xlink" x="0px"
	 y="0px" width="53.471px" height="53.469px" viewBox="0 0 53.471 53.469" enable-background="new 0 0 53.471 53.469"
	 xml:space="preserve">
<path id="パス_36" fill="#FFFFFF" d="M34.015,16.009c-0.596-0.221-1.265-0.033-1.657,0.465l-5.39,5.6
	c-0.083,0.088-0.161,0.181-0.232,0.279c-0.071-0.098-0.149-0.191-0.232-0.279l-5.39-5.6c-0.393-0.499-1.063-0.687-1.657-0.465
	c-0.361,0.146-0.966,0.581-0.966,1.858v12.548c0.011,1.219,0.439,2.396,1.212,3.339l5.388,5.601
	c0.293,0.344,0.717,0.547,1.168,0.561c0.163,0,0.325-0.03,0.477-0.09c0.152,0.06,0.313,0.09,0.477,0.09
	c0.45-0.014,0.873-0.217,1.166-0.559l5.391-5.601c0.773-0.942,1.201-2.122,1.212-3.341V17.868
	C34.981,16.59,34.376,16.156,34.015,16.009 M33.021,30.416c-0.014,0.713-0.246,1.402-0.663,1.98l-4.642,4.819V25.411
	c0.014-0.712,0.245-1.402,0.662-1.979l4.643-4.816V30.416z"/>
</svg>
