<svg id="グループ_255" data-name="グループ 255" xmlns="http://www.w3.org/2000/svg" xmlns:xlink="http://www.w3.org/1999/xlink" width="69.366" height="70.04" viewBox="0 0 69.366 70.04">
  <defs>
    <clipPath id="clip-path">
      <rect id="長方形_310" data-name="長方形 310" width="69.366" height="70.04" transform="translate(0 0)" fill="none"/>
    </clipPath>
  </defs>
  <path id="パス_1642" data-name="パス 1642" d="M34.682,0,0,35.188,34.515,70.04,69.366,35.188Z" fill="#1a1311"/>
  <path id="パス_1643" data-name="パス 1643" d="M.5,35.186,34.517,69.537,68.868,35.186,34.683.5Z" fill="#ffba00"/>
  <path id="パス_1644" data-name="パス 1644" d="M2.063,35.178,34.524,67.957,67.3,35.178,34.682,2.083Z" fill="#1a1311"/>
  <g id="グループ_254" data-name="グループ 254">
    <g id="グループ_253" data-name="グループ 253" clip-path="url(#clip-path)">
      <path id="パス_1645" data-name="パス 1645" d="M38.571,61.193a5.435,5.435,0,0,1-7.687,0L8.7,39.005a5.436,5.436,0,0,1,0-7.686L30.884,9.131a5.435,5.435,0,0,1,7.687,0L60.758,31.319a5.433,5.433,0,0,1,0,7.687Z" fill="#ffba00"/>
      <path id="パス_1646" data-name="パス 1646" d="M34.764,14.292c-3.812,0-4.16,3.929-4.16,3.929s1.849,15.022,3.467,27.387a10.336,10.336,0,0,0,.577,2.657c.577-.115,4.275-26.577,4.392-28.657s-.463-5.316-4.276-5.316m-.116,37.325a2.889,2.889,0,1,0,2.889,2.889,2.889,2.889,0,0,0-2.889-2.889" fill="#1a1311"/>
    </g>
  </g>
</svg>
