<?xml version="1.0" encoding="utf-8"?>
<!-- Generator: Adobe Illustrator 15.0.0, SVG Export Plug-In . SVG Version: 6.00 Build 0)  -->
<!DOCTYPE svg PUBLIC "-//W3C//DTD SVG 1.1//EN" "http://www.w3.org/Graphics/SVG/1.1/DTD/svg11.dtd">
<svg version="1.1" id="レイヤー_1" xmlns="http://www.w3.org/2000/svg" xmlns:xlink="http://www.w3.org/1999/xlink" x="0px"
	 y="0px" width="69.838px" height="44.676px" viewBox="0 0 69.838 44.676" enable-background="new 0 0 69.838 44.676"
	 xml:space="preserve">
<path fill="#8262A0" d="M66.553,33.063H28.529c-1.811,0-3.285-1.474-3.285-3.285V3.285C25.245,1.474,26.718,0,28.529,0h38.023
	c1.811,0,3.285,1.474,3.285,3.285v26.493C69.838,31.589,68.363,33.063,66.553,33.063z M28.529,0.9c-1.315,0-2.384,1.069-2.384,2.384
	v26.493c0,1.315,1.069,2.385,2.384,2.385h38.023c1.314,0,2.385-1.069,2.385-2.385V3.285c0-1.315-1.07-2.384-2.385-2.384H28.529z"/>
<path fill="#8262A0" d="M25.516,9.915c-0.202,0-0.392-0.123-0.467-0.323c-0.215-0.565-0.808-1.881-1.677-1.881H9.222
	c-0.276,0-0.5-0.224-0.5-0.5s0.224-0.5,0.5-0.5h14.149c1.066,0,1.994,0.897,2.612,2.526c0.098,0.258-0.032,0.547-0.29,0.645
	C25.635,9.904,25.575,9.915,25.516,9.915z"/>
<path fill="#8262A0" d="M10.473,38.686h-7.78c-0.815,0-1.467-0.265-1.938-0.787c-0.899-0.997-0.749-2.566-0.742-2.633l-0.002-6.893
	c0-13.335,7.153-20.21,7.458-20.497c0.202-0.189,0.518-0.179,0.706,0.021c0.189,0.201,0.18,0.518-0.021,0.707
	c-0.071,0.067-7.143,6.887-7.143,19.768v6.943c-0.004,0.063-0.112,1.252,0.49,1.916c0.277,0.305,0.667,0.453,1.192,0.453h7.28
	v-1.924c0-0.277,0.224-0.5,0.5-0.5s0.5,0.223,0.5,0.5v2.424C10.973,38.462,10.75,38.686,10.473,38.686z"/>
<path fill="#8262A0" d="M12.854,38.119h-2.055c-0.276,0-0.5-0.224-0.5-0.5s0.224-0.5,0.5-0.5h2.055c0.276,0,0.5,0.224,0.5,0.5
	S13.13,38.119,12.854,38.119z"/>
<path fill="#8262A0" d="M7.063,24.322c-1.076,0-2.108-0.146-2.681-0.61c-0.329-0.266-0.501-0.621-0.498-1.027
	C3.606,18.04,8.603,11.013,8.816,10.716c0.161-0.224,0.472-0.276,0.698-0.115c0.224,0.161,0.276,0.473,0.115,0.698
	c-0.05,0.07-5.003,7.034-4.745,11.359c0,0.117,0.021,0.19,0.128,0.276c0.781,0.631,3.8,0.391,5.679-0.025
	c0.783-0.173,1.087-0.76,1.44-1.439c0.321-0.618,0.653-1.256,1.379-1.512c0.607-0.212,1.785-0.171,3.653-0.079
	c1.221,0.061,3.271,0.163,3.623-0.068c0.416-0.596,0.428-5.654,0.433-7.813c0.002-0.684,0.003-1.28,0.011-1.719
	c-1.264-0.156-6.198-0.042-10.684,0.176c-0.277,0.006-0.511-0.199-0.524-0.475s0.199-0.51,0.475-0.524
	C21.692,8.912,21.983,9.37,22.158,9.642c0.059,0.092,0.085,0.213,0.079,0.33l0.001,0c-0.016,0.433-0.017,1.159-0.02,2.029
	c-0.014,6.145-0.192,8.068-0.792,8.579c-0.543,0.462-1.993,0.415-4.313,0.299c-1.316-0.066-2.807-0.14-3.271,0.024
	c-0.353,0.124-0.571,0.544-0.824,1.03c-0.389,0.748-0.873,1.68-2.11,1.954C10.876,23.893,8.904,24.322,7.063,24.322z"/>
<path fill="#8262A0" d="M43.258,38.014H26.653c-0.276,0-0.5-0.225-0.5-0.5c0-0.277,0.224-0.5,0.5-0.5h16.604
	c0.275,0,0.5,0.223,0.5,0.5C43.758,37.789,43.533,38.014,43.258,38.014z"/>
<path fill="#8262A0" d="M64.367,25.322H29.664c-0.276,0-0.5-0.223-0.5-0.5c0-0.275,0.224-0.5,0.5-0.5h34.703
	c0.276,0,0.5,0.225,0.5,0.5C64.867,25.1,64.644,25.322,64.367,25.322z"/>
<path fill="#8262A0" d="M62.172,37.688h-5.085c-0.276,0-0.5-0.224-0.5-0.5s0.224-0.5,0.5-0.5h5.005
	c0.12-0.07,0.354-0.387,0.354-1.146c0-0.277,0.223-0.5,0.5-0.5c0.275,0,0.5,0.223,0.5,0.5c0,1.842-1.053,2.111-1.172,2.137
	C62.24,37.684,62.205,37.688,62.172,37.688z"/>
<path fill="#8262A0" d="M3.047,32.877H0.528c-0.276,0-0.5-0.223-0.5-0.5c0-0.275,0.224-0.5,0.5-0.5h2.519c0.276,0,0.5,0.225,0.5,0.5
	C3.547,32.654,3.324,32.877,3.047,32.877z"/>
<path fill="#8262A0" d="M10.799,36.041H6.358c-0.836,0-1.457-0.232-1.843-0.688c-0.481-0.568-0.389-1.242-0.375-1.323l0,0
	c-0.004,0.001,0.045-1.42-0.006-3.235c-0.021-0.734-0.127-1.041-0.183-1.152H1.3c-0.276,0-0.5-0.225-0.5-0.5
	c0-0.277,0.224-0.5,0.5-0.5h2.629c0.157-0.029,0.355-0.008,0.546,0.115c0.418,0.271,0.627,0.908,0.658,2.009
	c0.053,1.881,0,3.349,0,3.363c-0.007,0.069-0.043,0.36,0.151,0.584c0.187,0.214,0.558,0.327,1.074,0.327h4.153
	c0.622-1.055,2.81-4.578,4.604-5.132c1.928-0.596,8.398-0.171,8.672-0.153c0.276,0.02,0.484,0.258,0.466,0.533
	s-0.251,0.479-0.532,0.465c-1.819-0.122-6.858-0.339-8.31,0.11c-1.371,0.424-3.479,3.698-4.176,4.923
	C11.145,35.943,10.979,36.041,10.799,36.041z"/>
<path fill="#8262A0" d="M18.965,44.676c-3.294,0-5.975-2.68-5.975-5.975c0-1.416,0.504-2.789,1.419-3.865
	c0.179-0.211,0.494-0.236,0.705-0.057c0.21,0.178,0.236,0.494,0.057,0.704c-0.761,0.896-1.181,2.039-1.181,3.218
	c0,2.743,2.231,4.975,4.975,4.975s4.975-2.231,4.975-4.975s-2.231-4.975-4.975-4.975c-0.276,0-0.5-0.224-0.5-0.5s0.224-0.5,0.5-0.5
	c3.294,0,5.975,2.68,5.975,5.975S22.26,44.676,18.965,44.676z"/>
<path fill="#8262A0" d="M18.965,41.299c-1.432,0-2.597-1.166-2.597-2.598s1.165-2.597,2.597-2.597c1.432,0,2.597,1.165,2.597,2.597
	c0,0.508-0.146,1-0.424,1.422c-0.152,0.231-0.462,0.297-0.692,0.145c-0.231-0.152-0.295-0.462-0.144-0.693
	c0.17-0.258,0.26-0.561,0.26-0.873c0-0.881-0.716-1.597-1.597-1.597c-0.881,0-1.597,0.716-1.597,1.597s0.716,1.598,1.597,1.598
	c0.276,0,0.5,0.223,0.5,0.5C19.465,41.074,19.242,41.299,18.965,41.299z"/>
<path fill="#8262A0" d="M50.49,44.674c-1.53,0-3.061-0.583-4.225-1.748c-2.33-2.329-2.33-6.119,0-8.449
	c0.195-0.195,0.512-0.195,0.707,0s0.195,0.512,0,0.707c-1.939,1.939-1.939,5.096,0,7.035s5.096,1.939,7.035,0s1.939-5.096,0-7.035
	c-0.195-0.195-0.195-0.512,0-0.707s0.512-0.195,0.707,0c2.329,2.33,2.329,6.12,0,8.449C53.55,44.091,52.02,44.674,50.49,44.674z"/>
<path fill="#8262A0" d="M50.49,41.297c-0.666,0-1.33-0.253-1.837-0.76c-0.195-0.195-0.195-0.512,0-0.707s0.512-0.195,0.707,0
	c0.623,0.623,1.636,0.623,2.259,0c0.623-0.622,0.623-1.635,0-2.258c-0.604-0.604-1.655-0.604-2.259,0
	c-0.195,0.195-0.512,0.195-0.707,0s-0.195-0.512,0-0.707c1.013-1.013,2.66-1.013,3.673,0s1.013,2.66,0,3.672
	C51.82,41.044,51.154,41.297,50.49,41.297z"/>
</svg>
