<?xml version="1.0" encoding="utf-8"?>
<!-- Generator: Adobe Illustrator 15.0.0, SVG Export Plug-In . SVG Version: 6.00 Build 0)  -->
<!DOCTYPE svg PUBLIC "-//W3C//DTD SVG 1.1//EN" "http://www.w3.org/Graphics/SVG/1.1/DTD/svg11.dtd">
<svg version="1.1" id="レイヤー_1" xmlns="http://www.w3.org/2000/svg" xmlns:xlink="http://www.w3.org/1999/xlink" x="0px"
	 y="0px" width="182.669px" height="13.109px" viewBox="0 0 182.669 13.109" enable-background="new 0 0 182.669 13.109"
	 xml:space="preserve">
<path d="M41.05,12.979c-0.146,0-0.272-0.049-0.379-0.143c-0.106-0.096-0.16-0.208-0.16-0.338V1.983c0-0.14,0.053-0.255,0.16-0.345
	c0.107-0.09,0.233-0.135,0.379-0.135c0.157,0,0.286,0.045,0.387,0.135c0.101,0.09,0.151,0.205,0.151,0.345v10.515
	c0,0.13-0.05,0.242-0.151,0.338C41.336,12.93,41.207,12.979,41.05,12.979z M46.237,8.718c-0.314-0.229-0.702-0.485-1.162-0.765
	c-0.46-0.28-0.932-0.555-1.415-0.825s-0.932-0.5-1.347-0.69c-0.135-0.07-0.225-0.167-0.27-0.292
	c-0.045-0.125-0.034-0.248,0.034-0.368s0.174-0.2,0.32-0.24c0.146-0.04,0.281-0.03,0.404,0.03c0.449,0.2,0.929,0.44,1.44,0.72
	c0.511,0.28,1.007,0.565,1.49,0.855c0.483,0.291,0.893,0.561,1.23,0.811c0.112,0.09,0.174,0.199,0.185,0.33
	c0.011,0.13-0.028,0.25-0.118,0.359c-0.101,0.1-0.228,0.158-0.379,0.173C46.499,8.83,46.361,8.798,46.237,8.718z"/>
<path d="M50.672,12.617c-0.146,0.041-0.284,0.033-0.413-0.021c-0.129-0.055-0.222-0.148-0.278-0.277
	c-0.045-0.131-0.034-0.256,0.034-0.375c0.067-0.121,0.174-0.201,0.32-0.24c1.449-0.44,2.729-1.043,3.84-1.808
	s1.931-1.633,2.459-2.603c0.64-1.2,0.224-1.8-1.247-1.8h-6.165c-0.146,0-0.272-0.047-0.379-0.143
	c-0.107-0.095-0.16-0.207-0.16-0.337c0-0.13,0.053-0.24,0.16-0.33c0.107-0.09,0.233-0.135,0.379-0.135h6.165
	c1.235,0,2.041,0.29,2.417,0.87c0.376,0.58,0.306,1.345-0.21,2.295c-0.393,0.72-0.929,1.395-1.609,2.025
	c-0.679,0.629-1.468,1.188-2.366,1.672C52.721,11.896,51.739,12.298,50.672,12.617z M50.318,2.748c-0.146,0-0.272-0.045-0.379-0.135
	c-0.107-0.09-0.16-0.2-0.16-0.33c0-0.14,0.053-0.255,0.16-0.345c0.106-0.09,0.233-0.135,0.379-0.135h6.35
	c0.157,0,0.289,0.045,0.396,0.135c0.106,0.09,0.16,0.205,0.16,0.345c0,0.13-0.054,0.24-0.16,0.33
	c-0.107,0.09-0.239,0.135-0.396,0.135H50.318z"/>
<path d="M62.968,8.777c-0.112,0.041-0.233,0.041-0.362,0c-0.129-0.039-0.222-0.114-0.278-0.225c-0.168-0.34-0.354-0.678-0.556-1.012
	c-0.202-0.335-0.399-0.623-0.59-0.863c-0.079-0.1-0.109-0.208-0.092-0.322c0.017-0.115,0.081-0.208,0.193-0.278
	c0.112-0.07,0.233-0.095,0.362-0.075c0.129,0.02,0.233,0.08,0.312,0.18c0.213,0.27,0.435,0.595,0.666,0.975
	c0.23,0.38,0.429,0.73,0.598,1.05c0.056,0.11,0.059,0.22,0.009,0.329C63.178,8.648,63.091,8.729,62.968,8.777z M63.17,13.068
	c-0.112,0.049-0.233,0.055-0.362,0.015s-0.222-0.115-0.278-0.226c-0.056-0.109-0.062-0.219-0.017-0.33
	c0.044-0.109,0.123-0.189,0.236-0.24c1.19-0.51,2.172-1.069,2.947-1.68c0.775-0.609,1.387-1.313,1.836-2.107
	s0.775-1.717,0.977-2.767c0.022-0.11,0.09-0.2,0.202-0.27s0.23-0.095,0.354-0.075c0.135,0.02,0.239,0.078,0.312,0.172
	c0.073,0.095,0.098,0.203,0.076,0.323c-0.213,1.13-0.576,2.135-1.086,3.016c-0.511,0.879-1.193,1.66-2.046,2.34
	C65.466,11.918,64.417,12.527,63.17,13.068z M65.579,8.178c-0.124,0.04-0.244,0.033-0.362-0.022
	c-0.118-0.055-0.199-0.138-0.244-0.247c-0.146-0.35-0.306-0.7-0.48-1.05c-0.174-0.35-0.34-0.65-0.497-0.9
	c-0.056-0.11-0.07-0.223-0.042-0.338c0.028-0.115,0.098-0.202,0.21-0.262c0.124-0.06,0.25-0.078,0.379-0.053
	c0.129,0.025,0.222,0.093,0.278,0.203c0.18,0.28,0.374,0.627,0.582,1.042c0.208,0.415,0.368,0.778,0.48,1.087
	c0.044,0.11,0.036,0.218-0.025,0.323C65.794,8.065,65.702,8.139,65.579,8.178z"/>
<path d="M72.838,12.918c-0.146,0.05-0.289,0.053-0.429,0.008c-0.141-0.045-0.239-0.133-0.295-0.264
	c-0.056-0.119-0.056-0.242,0-0.367s0.152-0.212,0.287-0.262c1.954-0.76,3.638-1.711,5.053-2.851c1.415-1.14,2.543-2.45,3.386-3.93
	c0.28-0.49,0.329-0.87,0.143-1.14c-0.185-0.27-0.609-0.405-1.271-0.405h-2.577c-0.55,0.66-1.174,1.307-1.87,1.942
	c-0.696,0.635-1.398,1.172-2.105,1.612c-0.124,0.07-0.258,0.095-0.404,0.075S72.49,7.253,72.4,7.143
	c-0.079-0.11-0.107-0.232-0.084-0.367c0.022-0.135,0.095-0.237,0.219-0.308c0.685-0.42,1.341-0.91,1.971-1.47
	c0.628-0.56,1.193-1.147,1.692-1.762c0.5-0.615,0.896-1.208,1.188-1.777c0.056-0.13,0.154-0.218,0.295-0.263
	c0.14-0.045,0.283-0.042,0.43,0.007c0.135,0.06,0.227,0.153,0.278,0.278c0.05,0.125,0.047,0.248-0.008,0.367
	c-0.158,0.291-0.337,0.595-0.539,0.915h1.87c1.145,0,1.906,0.265,2.282,0.795c0.376,0.53,0.312,1.24-0.194,2.13
	c-0.876,1.54-2.075,2.93-3.596,4.169C76.681,11.098,74.893,12.117,72.838,12.918z"/>
<path d="M87.298,13.064c-0.146,0-0.272-0.048-0.379-0.143c-0.106-0.096-0.16-0.207-0.16-0.338V2.069c0-0.13,0.053-0.243,0.16-0.337
	c0.107-0.095,0.233-0.143,0.379-0.143c0.157,0,0.286,0.047,0.387,0.143c0.101,0.095,0.151,0.208,0.151,0.337v10.515
	c0,0.131-0.05,0.242-0.151,0.338C87.584,13.017,87.455,13.064,87.298,13.064z M92.486,8.805c-0.314-0.23-0.702-0.485-1.162-0.766
	c-0.46-0.279-0.932-0.555-1.415-0.825s-0.932-0.5-1.347-0.69c-0.135-0.07-0.225-0.167-0.27-0.292
	c-0.045-0.125-0.034-0.248,0.034-0.368s0.174-0.2,0.32-0.24c0.146-0.04,0.281-0.03,0.404,0.03c0.449,0.2,0.929,0.44,1.44,0.72
	c0.511,0.28,1.004,0.565,1.482,0.855c0.477,0.291,0.885,0.56,1.221,0.81c0.124,0.09,0.191,0.203,0.203,0.338
	c0.011,0.135-0.029,0.258-0.118,0.367c-0.101,0.1-0.228,0.155-0.38,0.165C92.748,8.92,92.609,8.885,92.486,8.805z M93.935,4.949
	c-0.113,0.07-0.23,0.09-0.354,0.06c-0.124-0.03-0.219-0.09-0.286-0.18c-0.112-0.19-0.283-0.417-0.514-0.683
	c-0.23-0.265-0.43-0.477-0.598-0.637c-0.079-0.08-0.115-0.17-0.109-0.27c0.005-0.1,0.053-0.185,0.143-0.255
	c0.09-0.08,0.196-0.113,0.32-0.098c0.124,0.015,0.225,0.063,0.303,0.143c0.112,0.1,0.244,0.232,0.396,0.397
	c0.151,0.165,0.306,0.335,0.463,0.51c0.157,0.175,0.281,0.328,0.371,0.458c0.066,0.09,0.086,0.19,0.059,0.3
	C94.1,4.804,94.036,4.889,93.935,4.949z M95.433,3.899c-0.101,0.07-0.213,0.092-0.336,0.067c-0.124-0.025-0.219-0.083-0.287-0.172
	c-0.135-0.18-0.326-0.395-0.572-0.645c-0.247-0.25-0.455-0.45-0.623-0.6c-0.079-0.08-0.118-0.172-0.118-0.278
	c0-0.105,0.039-0.192,0.118-0.262c0.09-0.08,0.193-0.115,0.312-0.105s0.222,0.055,0.312,0.135c0.111,0.09,0.252,0.213,0.421,0.368
	c0.169,0.155,0.334,0.317,0.497,0.487c0.162,0.17,0.295,0.315,0.396,0.435c0.079,0.09,0.104,0.19,0.076,0.3
	S95.535,3.83,95.433,3.899z"/>
<path d="M98.92,12.704c-0.146,0.04-0.284,0.032-0.413-0.022s-0.221-0.147-0.277-0.277c-0.045-0.13-0.033-0.255,0.033-0.375
	c0.068-0.12,0.174-0.2,0.32-0.24c1.449-0.439,2.729-1.043,3.84-1.807c1.112-0.766,1.932-1.633,2.46-2.603
	c0.64-1.2,0.224-1.8-1.247-1.8h-6.164c-0.146,0-0.272-0.047-0.379-0.143c-0.107-0.095-0.16-0.207-0.16-0.337
	c0-0.13,0.053-0.24,0.16-0.33c0.106-0.09,0.232-0.135,0.379-0.135h6.164c1.235,0,2.041,0.29,2.418,0.87
	c0.375,0.58,0.305,1.345-0.211,2.294c-0.393,0.721-0.93,1.396-1.609,2.025c-0.679,0.63-1.468,1.188-2.365,1.672
	C100.97,11.982,99.988,12.385,98.92,12.704z M98.567,2.834c-0.146,0-0.272-0.045-0.379-0.135s-0.16-0.2-0.16-0.33
	c0-0.14,0.054-0.255,0.16-0.345c0.106-0.09,0.233-0.135,0.379-0.135h6.351c0.156,0,0.288,0.045,0.395,0.135
	c0.107,0.09,0.16,0.205,0.16,0.345c0,0.13-0.053,0.24-0.16,0.33c-0.106,0.09-0.238,0.135-0.395,0.135H98.567z"/>
<path d="M116.168,13.109c-0.146,0-0.272-0.048-0.379-0.143c-0.106-0.096-0.16-0.207-0.16-0.338v-7.08
	c-0.819,0.69-1.69,1.353-2.61,1.987c-0.922,0.635-1.836,1.198-2.746,1.688c-0.123,0.07-0.258,0.09-0.404,0.06
	c-0.146-0.03-0.258-0.104-0.336-0.226c-0.079-0.109-0.102-0.229-0.068-0.359c0.034-0.13,0.118-0.23,0.253-0.3
	c1.101-0.601,2.173-1.27,3.218-2.01c1.044-0.74,2.006-1.515,2.889-2.325c0.881-0.81,1.625-1.61,2.231-2.4
	c0.089-0.11,0.208-0.177,0.354-0.202s0.28,0.002,0.404,0.083c0.124,0.07,0.199,0.172,0.228,0.307
	c0.027,0.135-0.003,0.258-0.093,0.368c-0.292,0.38-0.629,0.77-1.011,1.17s-0.791,0.805-1.229,1.215v8.025
	c0,0.131-0.051,0.242-0.151,0.338C116.455,13.062,116.326,13.109,116.168,13.109z"/>
<path d="M122.3,10.064c-0.113,0.07-0.244,0.095-0.396,0.074c-0.151-0.02-0.272-0.084-0.361-0.194
	c-0.079-0.11-0.107-0.232-0.085-0.368c0.022-0.135,0.095-0.236,0.22-0.307c0.65-0.41,1.279-0.895,1.886-1.455
	c0.606-0.56,1.147-1.133,1.626-1.718c0.477-0.585,0.844-1.118,1.103-1.598c0.067-0.12,0.171-0.2,0.312-0.24s0.278-0.035,0.413,0.015
	c0.135,0.06,0.228,0.152,0.278,0.277c0.05,0.125,0.041,0.248-0.025,0.368c-0.203,0.37-0.48,0.785-0.834,1.245
	c-0.354,0.46-0.756,0.93-1.205,1.41c-0.449,0.48-0.926,0.938-1.432,1.373C123.293,9.382,122.794,9.754,122.3,10.064z M135.505,9.93
	c-0.125,0.07-0.26,0.088-0.404,0.053c-0.146-0.035-0.26-0.107-0.338-0.219c-0.213-0.33-0.484-0.697-0.816-1.102
	c-0.332-0.405-0.695-0.82-1.094-1.246c-0.399-0.425-0.813-0.84-1.238-1.245c-0.428-0.405-0.843-0.768-1.247-1.088
	c-0.112-0.09-0.169-0.202-0.169-0.337c0-0.135,0.051-0.252,0.152-0.353c0.102-0.1,0.228-0.152,0.379-0.157
	c0.152-0.005,0.283,0.042,0.396,0.143c0.393,0.33,0.803,0.697,1.229,1.103c0.428,0.405,0.852,0.827,1.271,1.267
	c0.422,0.44,0.813,0.876,1.172,1.306s0.662,0.834,0.908,1.215c0.078,0.109,0.1,0.23,0.059,0.359
	C135.726,9.76,135.64,9.859,135.505,9.93z M134.949,4.454c-0.09,0.07-0.199,0.1-0.328,0.09c-0.129-0.01-0.232-0.055-0.313-0.135
	c-0.156-0.17-0.369-0.37-0.639-0.6c-0.27-0.23-0.5-0.415-0.691-0.555c-0.09-0.06-0.143-0.143-0.159-0.248s0.014-0.197,0.093-0.278
	c0.09-0.09,0.193-0.137,0.311-0.142c0.119-0.005,0.223,0.027,0.313,0.097c0.123,0.08,0.275,0.193,0.455,0.337
	c0.18,0.146,0.361,0.295,0.547,0.45c0.186,0.155,0.334,0.288,0.445,0.397c0.09,0.08,0.129,0.178,0.119,0.292
	C135.089,4.277,135.039,4.375,134.949,4.454z M136.246,3.194c-0.078,0.07-0.182,0.105-0.311,0.105s-0.24-0.04-0.328-0.12
	c-0.17-0.16-0.395-0.347-0.674-0.563c-0.281-0.215-0.523-0.387-0.725-0.518c-0.09-0.06-0.146-0.143-0.17-0.248
	c-0.021-0.105,0.006-0.197,0.086-0.277c0.078-0.09,0.174-0.14,0.285-0.15c0.113-0.01,0.225,0.015,0.338,0.075
	c0.135,0.07,0.295,0.175,0.479,0.315c0.186,0.14,0.375,0.282,0.564,0.427c0.191,0.145,0.344,0.268,0.455,0.368
	c0.09,0.07,0.135,0.165,0.135,0.285C136.38,3.014,136.335,3.114,136.246,3.194z"/>
<path d="M136.937,7.694c-0.146,0-0.273-0.05-0.379-0.15c-0.107-0.1-0.16-0.215-0.16-0.345s0.053-0.242,0.16-0.337
	c0.105-0.095,0.232-0.143,0.379-0.143h10.662c0.145,0,0.271,0.047,0.379,0.143c0.105,0.095,0.16,0.208,0.16,0.337
	s-0.055,0.245-0.16,0.345c-0.107,0.1-0.234,0.15-0.379,0.15H136.937z"/>
<path d="M153.848,11.076c-0.135,0.064-0.271,0.08-0.411,0.049c-0.139-0.033-0.25-0.109-0.332-0.229
	c-0.073-0.109-0.084-0.223-0.031-0.337c0.051-0.115,0.145-0.206,0.278-0.269c0.319-0.139,0.71-0.325,1.17-0.56
	c0.459-0.235,0.935-0.49,1.425-0.766c0.49-0.276,0.955-0.546,1.394-0.807c0.439-0.263,0.803-0.489,1.093-0.683
	c0.113-0.074,0.234-0.104,0.363-0.09s0.229,0.067,0.303,0.159c0.164,0.24,0.129,0.441-0.109,0.607
	c-0.299,0.211-0.666,0.448-1.1,0.709c-0.434,0.264-0.891,0.532-1.371,0.809c-0.479,0.275-0.951,0.535-1.417,0.779
	C154.638,10.692,154.22,10.902,153.848,11.076z M158.077,12.676c-0.155,0-0.282-0.041-0.38-0.123
	c-0.098-0.083-0.157-0.189-0.178-0.318c-0.011-0.128,0.033-0.238,0.131-0.33c0.099-0.092,0.234-0.143,0.41-0.152
	c0.466-0.018,0.816-0.057,1.054-0.117c0.237-0.06,0.4-0.165,0.488-0.317c0.087-0.151,0.132-0.374,0.132-0.669V3.586h-5.871
	c-0.134,0-0.245-0.042-0.333-0.124c-0.087-0.083-0.132-0.18-0.132-0.29c0-0.119,0.045-0.22,0.132-0.304
	c0.088-0.082,0.199-0.124,0.333-0.124h5.871V0.441c0-0.129,0.049-0.235,0.146-0.317C159.979,0.041,160.095,0,160.23,0
	c0.133,0,0.25,0.041,0.348,0.124c0.098,0.083,0.147,0.188,0.147,0.317v2.303h5.901c0.134,0,0.245,0.042,0.333,0.124
	c0.088,0.083,0.132,0.185,0.132,0.304c0,0.11-0.044,0.207-0.132,0.29c-0.088,0.083-0.199,0.124-0.333,0.124h-5.901V4.87
	c0.227,0.358,0.475,0.71,0.743,1.055c0.27,0.345,0.547,0.678,0.836,1c0.259-0.202,0.548-0.435,0.869-0.697
	c0.319-0.262,0.623-0.522,0.912-0.779s0.521-0.468,0.697-0.634c0.094-0.092,0.213-0.143,0.357-0.152
	c0.145-0.009,0.268,0.032,0.371,0.124c0.113,0.102,0.17,0.214,0.17,0.338c0,0.125-0.051,0.237-0.154,0.338
	c-0.217,0.193-0.48,0.416-0.79,0.669c-0.31,0.252-0.625,0.503-0.944,0.752c-0.32,0.248-0.615,0.468-0.883,0.662
	c1.301,1.278,2.699,2.299,4.197,3.063c0.124,0.064,0.206,0.161,0.248,0.289c0.041,0.129,0.02,0.248-0.063,0.359
	c-0.104,0.119-0.23,0.188-0.379,0.207c-0.15,0.018-0.293-0.01-0.426-0.083c-1.064-0.589-2.107-1.319-3.13-2.194
	c-1.022-0.872-1.899-1.852-2.633-2.937v4.469c0,0.478-0.077,0.86-0.232,1.146c-0.155,0.284-0.424,0.491-0.806,0.619
	C159.305,12.611,158.768,12.676,158.077,12.676z M157.673,7.145c-0.104,0.083-0.225,0.115-0.363,0.097
	c-0.141-0.019-0.256-0.074-0.35-0.166c-0.145-0.166-0.322-0.355-0.533-0.572c-0.213-0.216-0.432-0.432-0.658-0.648
	c-0.228-0.216-0.435-0.401-0.62-0.558c-0.104-0.083-0.147-0.188-0.132-0.317c0.016-0.129,0.075-0.23,0.178-0.304
	c0.114-0.083,0.24-0.122,0.38-0.117c0.14,0.004,0.261,0.053,0.364,0.145c0.195,0.166,0.41,0.361,0.643,0.586
	c0.232,0.225,0.454,0.445,0.666,0.662c0.211,0.217,0.385,0.403,0.52,0.559c0.092,0.092,0.131,0.2,0.115,0.324
	S157.797,7.062,157.673,7.145z"/>
<path d="M169.694,12.276c-0.135,0.064-0.276,0.085-0.427,0.063c-0.149-0.023-0.266-0.095-0.348-0.214
	c-0.084-0.12-0.099-0.242-0.047-0.366c0.053-0.124,0.145-0.218,0.279-0.282c1.941-0.791,3.436-1.825,4.484-3.104
	c1.048-1.279,1.571-2.75,1.571-4.415V0.731c0-0.138,0.049-0.249,0.147-0.331c0.098-0.083,0.22-0.125,0.364-0.125
	s0.263,0.041,0.356,0.125c0.093,0.082,0.139,0.192,0.139,0.331v2.966c0,0.809,0.16,1.6,0.48,2.372c0.32,0.772,0.762,1.5,1.324,2.179
	c0.563,0.682,1.215,1.29,1.959,1.828c0.744,0.539,1.534,0.973,2.371,1.304c0.133,0.046,0.229,0.138,0.286,0.276
	c0.056,0.137,0.044,0.266-0.038,0.385c-0.084,0.121-0.205,0.198-0.365,0.235c-0.16,0.036-0.313,0.022-0.457-0.042
	c-1.424-0.671-2.648-1.508-3.67-2.51c-1.023-1.002-1.793-2.208-2.309-3.614c-0.352,1.361-1.049,2.548-2.092,3.56
	C172.662,10.681,171.325,11.55,169.694,12.276z"/>
<g>
	<path d="M0.636,7.32C0.519,7.36,0.402,7.368,0.286,7.344s-0.202-0.1-0.256-0.228c-0.045-0.112-0.039-0.21,0.02-0.294
		S0.2,6.676,0.326,6.636C1.287,6.34,2.132,5.974,2.859,5.538s1.338-0.954,1.833-1.554h-3.84c-0.108,0-0.2-0.034-0.276-0.102
		c-0.076-0.068-0.114-0.15-0.114-0.246c0-0.096,0.038-0.178,0.114-0.246s0.168-0.102,0.276-0.102h4.353
		c0.125-0.2,0.243-0.41,0.35-0.63c0.108-0.22,0.207-0.446,0.296-0.678C5.896,1.876,5.97,1.8,6.073,1.752
		c0.103-0.048,0.213-0.056,0.33-0.024C6.52,1.76,6.605,1.82,6.659,1.908c0.054,0.088,0.059,0.18,0.014,0.276
		C6.538,2.56,6.367,2.928,6.161,3.288h5.727c0.107,0,0.2,0.034,0.276,0.102s0.115,0.15,0.115,0.246c0,0.096-0.039,0.178-0.115,0.246
		c-0.076,0.068-0.168,0.102-0.276,0.102h-4.11c0.557,0.616,1.23,1.14,2.021,1.572c0.791,0.432,1.675,0.764,2.655,0.996
		c0.125,0.024,0.218,0.082,0.276,0.174c0.059,0.092,0.07,0.194,0.034,0.306c-0.045,0.12-0.128,0.202-0.249,0.246
		s-0.254,0.046-0.397,0.006c-1.069-0.304-2.068-0.729-2.998-1.278c-0.93-0.548-1.687-1.222-2.271-2.022H5.703
		C4.606,5.464,2.917,6.576,0.636,7.32z M4.8,12.779c-0.126,0-0.231-0.033-0.317-0.102s-0.132-0.154-0.141-0.258
		c-0.009-0.112,0.029-0.206,0.114-0.282c0.085-0.075,0.195-0.118,0.33-0.126c0.333-0.008,0.582-0.034,0.748-0.078
		c0.166-0.044,0.278-0.125,0.337-0.246c0.058-0.119,0.087-0.291,0.087-0.516V8.939H0.933c-0.108,0-0.202-0.035-0.283-0.107
		C0.569,8.76,0.528,8.676,0.528,8.58c0-0.104,0.041-0.189,0.121-0.258C0.73,8.254,0.825,8.22,0.933,8.22h10.86
		c0.117,0,0.213,0.034,0.29,0.103c0.076,0.068,0.114,0.154,0.114,0.258c0,0.096-0.038,0.18-0.114,0.252
		c-0.077,0.072-0.173,0.107-0.29,0.107H6.821v2.293c0,0.584-0.144,0.987-0.431,1.211C6.102,12.668,5.572,12.779,4.8,12.779z
		 M1.458,12c-0.117,0.056-0.236,0.076-0.357,0.061c-0.122-0.017-0.218-0.072-0.29-0.168c-0.063-0.089-0.083-0.185-0.061-0.289
		c0.022-0.104,0.092-0.184,0.209-0.24c0.296-0.135,0.624-0.307,0.983-0.516c0.359-0.207,0.705-0.424,1.038-0.648
		c0.333-0.223,0.602-0.424,0.809-0.6C3.87,9.527,3.971,9.494,4.092,9.498S4.306,9.536,4.369,9.6C4.44,9.672,4.481,9.756,4.49,9.852
		s-0.027,0.18-0.108,0.252c-0.242,0.209-0.53,0.428-0.862,0.66s-0.678,0.456-1.038,0.672C2.123,11.652,1.781,11.84,1.458,12z
		 M3.749,6.9c-0.107,0-0.2-0.036-0.276-0.108C3.396,6.72,3.358,6.636,3.358,6.54c0-0.096,0.038-0.178,0.115-0.246
		c0.076-0.068,0.168-0.102,0.276-0.102h5.174c0.108,0,0.2,0.034,0.276,0.102s0.115,0.15,0.115,0.246c0,0.096-0.039,0.18-0.115,0.252
		C9.123,6.864,9.031,6.9,8.923,6.9H3.749z M11.308,12c-0.314-0.16-0.653-0.35-1.018-0.57c-0.364-0.22-0.714-0.447-1.051-0.684
		s-0.622-0.454-0.855-0.654C8.303,10.02,8.265,9.936,8.27,9.84C8.274,9.744,8.312,9.664,8.384,9.6C8.456,9.536,8.55,9.5,8.667,9.492
		s0.216,0.023,0.296,0.096c0.207,0.176,0.479,0.378,0.815,0.605c0.337,0.229,0.687,0.449,1.051,0.66
		c0.364,0.213,0.694,0.387,0.991,0.522c0.107,0.048,0.175,0.124,0.202,0.228c0.027,0.104,0.004,0.2-0.067,0.289
		c-0.063,0.096-0.157,0.151-0.283,0.168C11.546,12.076,11.425,12.056,11.308,12z"/>
	<path d="M14.232,12.6c-0.135,0.016-0.251-0.004-0.351-0.06c-0.099-0.056-0.157-0.136-0.175-0.24
		c-0.018-0.096,0.002-0.185,0.061-0.264c0.058-0.08,0.155-0.128,0.29-0.144c0.243-0.041,0.521-0.087,0.835-0.139
		s0.638-0.105,0.97-0.162V5.244c0-0.712,0.173-1.21,0.519-1.494c0.346-0.284,0.941-0.426,1.785-0.426h1.038v-1.26
		c0-0.12,0.047-0.216,0.142-0.288s0.2-0.108,0.316-0.108c0.126,0,0.234,0.036,0.324,0.108c0.089,0.072,0.135,0.168,0.135,0.288v1.26
		h1.01c0.854,0,1.449,0.142,1.786,0.426s0.505,0.782,0.505,1.494V6.3c0,0.472-0.072,0.848-0.216,1.128
		c-0.144,0.28-0.384,0.48-0.721,0.6c-0.337,0.121-0.789,0.181-1.354,0.181h-1.334c0.18,0.296,0.382,0.571,0.606,0.828
		c0.225,0.256,0.462,0.496,0.714,0.72c0.215-0.072,0.472-0.162,0.768-0.27c0.296-0.108,0.602-0.223,0.916-0.342
		c0.314-0.121,0.613-0.24,0.896-0.361c0.283-0.119,0.519-0.231,0.708-0.336c0.108-0.063,0.223-0.084,0.344-0.06
		s0.209,0.084,0.263,0.181c0.063,0.096,0.081,0.195,0.054,0.299c-0.027,0.105-0.104,0.181-0.229,0.229
		c-0.251,0.112-0.557,0.238-0.916,0.379c-0.359,0.139-0.73,0.277-1.112,0.413s-0.73,0.261-1.044,0.372
		c0.539,0.368,1.121,0.682,1.745,0.941c0.625,0.261,1.255,0.471,1.893,0.631c0.126,0.031,0.216,0.096,0.27,0.191
		c0.054,0.097,0.059,0.196,0.014,0.301c-0.036,0.111-0.124,0.189-0.263,0.234c-0.14,0.043-0.276,0.045-0.411,0.006
		c-1.375-0.425-2.587-0.98-3.638-1.668c-1.051-0.688-1.869-1.584-2.452-2.688h-2.17v3.204c0.557-0.112,1.096-0.229,1.617-0.348
		c0.521-0.121,0.948-0.225,1.28-0.313c0.125-0.031,0.233-0.023,0.323,0.023c0.09,0.049,0.148,0.117,0.175,0.205
		c0.063,0.215-0.045,0.359-0.324,0.432c-0.359,0.096-0.779,0.197-1.26,0.306s-0.981,0.218-1.502,0.33s-1.029,0.216-1.522,0.312
		C15.045,12.456,14.61,12.535,14.232,12.6z M16.752,5.4h5.821V5.268c0-0.336-0.045-0.596-0.135-0.78
		c-0.09-0.184-0.245-0.31-0.465-0.378s-0.523-0.102-0.91-0.102h-2.816c-0.387,0-0.688,0.034-0.903,0.102
		c-0.216,0.068-0.369,0.194-0.458,0.378c-0.09,0.184-0.135,0.444-0.135,0.78V5.4z M16.752,7.524h4.312
		c0.386,0,0.689-0.036,0.91-0.108c0.22-0.072,0.375-0.198,0.465-0.378c0.09-0.18,0.135-0.438,0.135-0.774v-0.18h-5.821V7.524z"/>
</g>
<g>
	<path d="M33.113,12.042c-0.107,0.022-0.208,0.009-0.303-0.038c-0.095-0.048-0.154-0.119-0.179-0.215
		c-0.033-0.103-0.021-0.194,0.037-0.275c0.058-0.08,0.14-0.135,0.247-0.164c0.955-0.213,1.705-0.584,2.248-1.111
		c0.543-0.528,0.815-1.203,0.815-2.023c0-0.559-0.146-1.053-0.438-1.486c-0.292-0.433-0.702-0.777-1.229-1.034
		c-0.527-0.257-1.145-0.396-1.853-0.418c-0.083,0.895-0.224,1.71-0.426,2.447c-0.202,0.736-0.444,1.371-0.729,1.902
		c-0.284,0.532-0.595,0.943-0.933,1.232c-0.338,0.29-0.684,0.435-1.038,0.435c-0.395,0-0.745-0.11-1.05-0.329
		c-0.305-0.221-0.543-0.525-0.716-0.914s-0.26-0.828-0.26-1.32c0-0.594,0.128-1.142,0.383-1.644
		c0.255-0.502,0.609-0.938,1.062-1.309c0.453-0.371,0.982-0.656,1.587-0.858c0.605-0.202,1.258-0.302,1.958-0.302
		c0.856,0,1.62,0.148,2.292,0.445c0.671,0.297,1.202,0.715,1.593,1.254c0.391,0.539,0.587,1.172,0.587,1.898
		c0,0.982-0.33,1.802-0.988,2.458S34.233,11.785,33.113,12.042z M29.333,10.579c0.23,0,0.469-0.136,0.716-0.407
		s0.484-0.648,0.71-1.133s0.422-1.045,0.586-1.683c0.165-0.638,0.28-1.32,0.346-2.046c-0.774,0.073-1.431,0.281-1.97,0.622
		c-0.54,0.341-0.947,0.757-1.223,1.249c-0.276,0.492-0.414,1.008-0.414,1.55c0,0.565,0.119,1.015,0.358,1.348
		C28.683,10.412,28.979,10.579,29.333,10.579z"/>
</g>
</svg>
