<?xml version="1.0" encoding="utf-8"?>
<!-- Generator: Adobe Illustrator 15.0.0, SVG Export Plug-In . SVG Version: 6.00 Build 0)  -->
<!DOCTYPE svg PUBLIC "-//W3C//DTD SVG 1.1//EN" "http://www.w3.org/Graphics/SVG/1.1/DTD/svg11.dtd">
<svg version="1.1" id="レイヤー_1" xmlns="http://www.w3.org/2000/svg" xmlns:xlink="http://www.w3.org/1999/xlink" x="0px"
	 y="0px" width="97.998px" height="66.651px" viewBox="0 0 97.998 66.651" enable-background="new 0 0 97.998 66.651"
	 xml:space="preserve">
<g>
	<path d="M31.852,19.179c-0.146,0-0.272,0.045-0.379,0.135c-0.106,0.09-0.16,0.205-0.16,0.345v10.515c0,0.13,0.053,0.243,0.16,0.338
		c0.107,0.095,0.233,0.143,0.379,0.143c0.157,0,0.286-0.048,0.387-0.143c0.101-0.095,0.151-0.208,0.151-0.338V19.659
		c0-0.14-0.05-0.255-0.151-0.345C32.138,19.224,32.008,19.179,31.852,19.179z"/>
	<path d="M33.603,23.244c-0.124-0.06-0.258-0.07-0.404-0.03c-0.146,0.04-0.252,0.12-0.32,0.24s-0.079,0.243-0.034,0.368
		c0.044,0.125,0.135,0.223,0.27,0.292c0.415,0.19,0.864,0.42,1.347,0.69s0.955,0.545,1.415,0.825c0.46,0.28,0.848,0.535,1.162,0.765
		c0.124,0.08,0.261,0.112,0.413,0.098c0.152-0.015,0.278-0.073,0.379-0.173c0.089-0.11,0.129-0.229,0.118-0.36
		c-0.011-0.13-0.073-0.24-0.185-0.33c-0.337-0.25-0.747-0.52-1.23-0.81c-0.483-0.29-0.979-0.575-1.49-0.855
		C34.532,23.684,34.052,23.444,33.603,23.244z"/>
	<path d="M48.19,22.224h-6.165c-0.146,0-0.272,0.045-0.379,0.135c-0.107,0.09-0.16,0.2-0.16,0.33c0,0.13,0.053,0.243,0.16,0.337
		c0.107,0.095,0.233,0.143,0.379,0.143h6.165c1.471,0,1.886,0.6,1.247,1.8c-0.528,0.97-1.348,1.837-2.459,2.603
		c-1.112,0.765-2.392,1.367-3.84,1.807c-0.146,0.04-0.252,0.12-0.32,0.24s-0.079,0.245-0.034,0.375
		c0.056,0.13,0.148,0.223,0.278,0.277c0.129,0.055,0.267,0.063,0.413,0.022c1.067-0.32,2.049-0.722,2.948-1.208
		c0.898-0.485,1.687-1.042,2.366-1.672c0.68-0.63,1.216-1.305,1.608-2.025c0.517-0.95,0.587-1.715,0.211-2.295
		C50.23,22.514,49.425,22.224,48.19,22.224z"/>
	<path d="M49.47,20.423c0.157,0,0.289-0.045,0.396-0.135c0.106-0.09,0.16-0.2,0.16-0.33c0-0.14-0.054-0.255-0.16-0.345
		c-0.107-0.09-0.239-0.135-0.396-0.135h-6.35c-0.146,0-0.272,0.045-0.379,0.135c-0.107,0.09-0.16,0.205-0.16,0.345
		c0,0.13,0.053,0.24,0.16,0.33c0.106,0.09,0.233,0.135,0.379,0.135H49.47z"/>
	<path d="M55.129,26.229c0.056,0.11,0.149,0.185,0.278,0.225s0.25,0.04,0.361,0c0.124-0.05,0.211-0.13,0.262-0.24
		c0.051-0.11,0.047-0.22-0.009-0.33c-0.169-0.32-0.368-0.67-0.598-1.05c-0.23-0.38-0.452-0.705-0.665-0.975
		c-0.079-0.1-0.184-0.16-0.313-0.18s-0.25,0.005-0.361,0.075c-0.113,0.07-0.178,0.163-0.193,0.278
		c-0.018,0.115,0.014,0.223,0.092,0.322c0.191,0.24,0.388,0.528,0.59,0.863S54.96,25.889,55.129,26.229z"/>
	<path d="M57.774,25.583c0.045,0.11,0.126,0.193,0.244,0.248c0.118,0.055,0.238,0.063,0.362,0.022
		c0.123-0.04,0.216-0.112,0.277-0.217c0.063-0.105,0.07-0.212,0.025-0.323c-0.111-0.31-0.271-0.672-0.479-1.087
		s-0.401-0.762-0.581-1.042c-0.057-0.11-0.149-0.177-0.278-0.203c-0.129-0.025-0.255-0.007-0.379,0.053
		c-0.112,0.06-0.183,0.147-0.21,0.262c-0.029,0.115-0.015,0.228,0.041,0.338c0.158,0.25,0.323,0.55,0.498,0.9
		C57.468,24.884,57.628,25.234,57.774,25.583z"/>
	<path d="M55.315,30.204c-0.046,0.11-0.04,0.22,0.017,0.33c0.057,0.11,0.148,0.185,0.277,0.225c0.129,0.04,0.25,0.035,0.363-0.015
		c1.246-0.54,2.296-1.15,3.149-1.83c0.853-0.68,1.535-1.46,2.046-2.34c0.512-0.88,0.873-1.885,1.087-3.015
		c0.022-0.12-0.003-0.228-0.075-0.323c-0.074-0.095-0.178-0.152-0.313-0.172c-0.123-0.02-0.241,0.005-0.354,0.075
		s-0.18,0.16-0.202,0.27c-0.202,1.05-0.528,1.972-0.978,2.768c-0.449,0.795-1.061,1.498-1.836,2.107
		c-0.774,0.61-1.757,1.17-2.947,1.68C55.438,30.014,55.359,30.094,55.315,30.204z"/>
	<path d="M65.64,30.594c2.055-0.8,3.843-1.82,5.364-3.06s2.72-2.63,3.597-4.17c0.505-0.89,0.569-1.6,0.193-2.13
		c-0.377-0.53-1.137-0.795-2.282-0.795h-1.87c0.203-0.32,0.382-0.625,0.539-0.915c0.057-0.12,0.059-0.242,0.009-0.367
		c-0.051-0.125-0.144-0.218-0.278-0.278c-0.146-0.05-0.289-0.052-0.43-0.007s-0.238,0.133-0.295,0.263
		c-0.291,0.57-0.688,1.162-1.188,1.777c-0.499,0.615-1.063,1.203-1.691,1.762c-0.63,0.561-1.287,1.05-1.971,1.47
		c-0.125,0.07-0.197,0.172-0.22,0.308c-0.022,0.135,0.005,0.257,0.085,0.367c0.089,0.11,0.207,0.175,0.354,0.195
		c0.146,0.02,0.28-0.005,0.404-0.075c0.707-0.44,1.408-0.977,2.105-1.612c0.695-0.635,1.318-1.283,1.869-1.942h2.577
		c0.662,0,1.087,0.135,1.271,0.405c0.186,0.27,0.138,0.65-0.144,1.14c-0.842,1.48-1.971,2.79-3.385,3.93
		c-1.415,1.14-3.1,2.09-5.053,2.85c-0.135,0.05-0.23,0.138-0.287,0.263s-0.057,0.248,0,0.367c0.057,0.13,0.154,0.218,0.295,0.263
		S65.494,30.644,65.64,30.594z"/>
	<path d="M31.852,33.679c-0.146,0-0.272,0.047-0.379,0.143c-0.106,0.095-0.16,0.208-0.16,0.337v10.515
		c0,0.13,0.053,0.243,0.16,0.338c0.107,0.095,0.233,0.143,0.379,0.143c0.157,0,0.286-0.048,0.387-0.143s0.151-0.208,0.151-0.338
		V34.159c0-0.13-0.05-0.243-0.151-0.337C32.138,33.726,32.008,33.679,31.852,33.679z"/>
	<path d="M36.525,39.319c-0.478-0.29-0.971-0.575-1.482-0.855c-0.511-0.279-0.991-0.52-1.44-0.72
		c-0.124-0.06-0.258-0.069-0.404-0.03c-0.146,0.04-0.252,0.12-0.32,0.24s-0.079,0.242-0.034,0.367
		c0.044,0.125,0.135,0.223,0.27,0.293c0.415,0.189,0.864,0.42,1.347,0.689c0.483,0.271,0.955,0.545,1.415,0.825
		s0.848,0.535,1.162,0.765c0.124,0.08,0.261,0.115,0.413,0.105c0.152-0.01,0.278-0.064,0.379-0.165
		c0.089-0.11,0.129-0.232,0.118-0.367c-0.011-0.136-0.079-0.247-0.202-0.338C37.41,39.879,37.002,39.609,36.525,39.319z"/>
	<path d="M39.709,34.983c-0.163-0.169-0.329-0.332-0.497-0.487c-0.168-0.155-0.309-0.277-0.421-0.368
		c-0.09-0.08-0.194-0.125-0.312-0.135c-0.118-0.01-0.222,0.025-0.312,0.105c-0.079,0.07-0.118,0.157-0.118,0.262
		c0,0.105,0.039,0.198,0.118,0.278c0.168,0.15,0.376,0.35,0.624,0.6c0.247,0.25,0.438,0.465,0.573,0.645
		c0.067,0.09,0.163,0.148,0.286,0.173s0.236,0.003,0.337-0.067s0.166-0.16,0.194-0.27c0.028-0.11,0.002-0.211-0.076-0.301
		C40.004,35.298,39.872,35.154,39.709,34.983z"/>
	<path d="M38.252,36.026c-0.157-0.175-0.312-0.345-0.463-0.51c-0.151-0.165-0.284-0.297-0.396-0.397
		c-0.079-0.08-0.18-0.128-0.303-0.143c-0.124-0.015-0.23,0.018-0.32,0.098c-0.09,0.069-0.138,0.155-0.143,0.255
		c-0.006,0.1,0.031,0.189,0.109,0.27c0.168,0.16,0.368,0.373,0.598,0.638c0.23,0.265,0.401,0.493,0.514,0.683
		c0.067,0.09,0.163,0.15,0.286,0.18c0.124,0.03,0.242,0.011,0.354-0.06c0.101-0.06,0.166-0.146,0.194-0.255
		c0.028-0.109,0.008-0.21-0.059-0.301C38.533,36.354,38.409,36.202,38.252,36.026z"/>
	<path d="M48.19,36.723h-6.165c-0.146,0-0.272,0.045-0.379,0.135c-0.107,0.091-0.16,0.201-0.16,0.33c0,0.131,0.053,0.243,0.16,0.338
		c0.107,0.096,0.233,0.143,0.379,0.143h6.165c1.471,0,1.886,0.6,1.247,1.801c-0.528,0.969-1.348,1.837-2.459,2.602
		c-1.112,0.766-2.392,1.367-3.84,1.808c-0.146,0.04-0.252,0.12-0.32,0.24s-0.079,0.245-0.034,0.375
		c0.056,0.13,0.148,0.223,0.278,0.277c0.129,0.056,0.267,0.063,0.413,0.022c1.067-0.32,2.049-0.723,2.948-1.207
		c0.898-0.485,1.687-1.043,2.366-1.673c0.68-0.63,1.216-1.306,1.608-2.024c0.517-0.951,0.587-1.715,0.211-2.295
		C50.23,37.014,49.425,36.723,48.19,36.723z"/>
	<path d="M49.47,34.923c0.157,0,0.289-0.045,0.396-0.135c0.106-0.09,0.16-0.2,0.16-0.33c0-0.14-0.054-0.255-0.16-0.345
		c-0.107-0.09-0.239-0.135-0.396-0.135h-6.35c-0.146,0-0.272,0.045-0.379,0.135c-0.107,0.09-0.16,0.205-0.16,0.345
		c0,0.13,0.053,0.24,0.16,0.33c0.106,0.09,0.233,0.135,0.379,0.135H49.47z"/>
	<path d="M63.367,33.634c-0.124-0.08-0.259-0.107-0.404-0.083c-0.146,0.025-0.265,0.092-0.354,0.202
		c-0.607,0.79-1.352,1.591-2.232,2.4c-0.882,0.81-1.844,1.585-2.889,2.325s-2.117,1.41-3.217,2.01c-0.135,0.07-0.219,0.17-0.253,0.3
		s-0.011,0.25,0.067,0.36c0.078,0.119,0.191,0.195,0.337,0.225c0.146,0.03,0.28,0.01,0.404-0.061
		c0.909-0.489,1.824-1.052,2.745-1.688c0.921-0.635,1.791-1.297,2.611-1.986v7.08c0,0.129,0.053,0.242,0.16,0.337
		c0.105,0.095,0.232,0.143,0.379,0.143c0.156,0,0.286-0.048,0.387-0.143c0.102-0.095,0.152-0.208,0.152-0.337v-8.025
		c0.438-0.41,0.848-0.815,1.229-1.215c0.383-0.4,0.719-0.79,1.012-1.17c0.09-0.11,0.12-0.232,0.092-0.368
		C63.566,33.806,63.49,33.704,63.367,33.634z"/>
	<path d="M71.57,36.364c-0.135-0.051-0.273-0.055-0.413-0.016c-0.141,0.041-0.245,0.121-0.312,0.24
		c-0.259,0.48-0.627,1.013-1.104,1.598c-0.478,0.585-1.02,1.158-1.625,1.718c-0.607,0.56-1.236,1.045-1.887,1.454
		c-0.124,0.07-0.197,0.174-0.219,0.309c-0.023,0.135,0.006,0.258,0.084,0.367c0.09,0.109,0.211,0.175,0.361,0.195
		c0.152,0.02,0.284-0.006,0.396-0.075c0.494-0.31,0.994-0.683,1.499-1.118c0.505-0.435,0.982-0.893,1.432-1.372
		s0.851-0.95,1.204-1.41s0.632-0.875,0.834-1.245c0.067-0.119,0.076-0.242,0.025-0.367S71.705,36.423,71.57,36.364z"/>
	<path d="M74.752,36.836c0,0.135,0.056,0.247,0.169,0.337c0.404,0.32,0.819,0.683,1.246,1.088s0.84,0.819,1.238,1.245
		c0.398,0.425,0.764,0.84,1.095,1.244c0.331,0.406,0.604,0.773,0.817,1.104c0.078,0.109,0.19,0.182,0.336,0.217
		c0.146,0.035,0.281,0.018,0.404-0.053c0.135-0.069,0.222-0.17,0.262-0.299c0.039-0.131,0.02-0.25-0.059-0.361
		c-0.248-0.379-0.551-0.784-0.91-1.215c-0.359-0.43-0.75-0.864-1.171-1.305c-0.421-0.439-0.845-0.862-1.271-1.268
		c-0.427-0.404-0.837-0.772-1.229-1.102c-0.112-0.101-0.244-0.148-0.396-0.143c-0.15,0.004-0.277,0.057-0.379,0.156
		C74.803,36.583,74.752,36.702,74.752,36.836z"/>
	<path d="M77.532,35.344c0.19,0.14,0.421,0.324,0.69,0.555s0.482,0.43,0.641,0.6c0.078,0.08,0.182,0.125,0.312,0.135
		c0.129,0.01,0.238-0.02,0.328-0.09c0.09-0.08,0.141-0.178,0.151-0.293c0.012-0.114-0.027-0.212-0.117-0.292
		c-0.113-0.11-0.262-0.242-0.447-0.397c-0.185-0.154-0.367-0.305-0.547-0.45c-0.18-0.145-0.332-0.257-0.455-0.337
		c-0.09-0.07-0.193-0.102-0.312-0.097s-0.222,0.052-0.312,0.142c-0.078,0.081-0.109,0.172-0.092,0.278
		C77.388,35.202,77.442,35.284,77.532,35.344z"/>
	<path d="M79.486,34.706c0.28,0.215,0.506,0.403,0.674,0.562c0.09,0.08,0.199,0.121,0.328,0.121s0.232-0.035,0.312-0.105
		c0.09-0.08,0.135-0.18,0.135-0.301c0-0.119-0.045-0.214-0.135-0.284c-0.112-0.1-0.264-0.223-0.454-0.368
		c-0.191-0.145-0.379-0.287-0.564-0.427s-0.346-0.245-0.48-0.315c-0.112-0.06-0.225-0.084-0.337-0.075s-0.208,0.06-0.286,0.15
		c-0.078,0.08-0.107,0.172-0.084,0.277c0.021,0.105,0.078,0.188,0.168,0.248C78.963,34.319,79.205,34.491,79.486,34.706z"/>
	<path d="M92.531,39.633c0.106-0.1,0.16-0.215,0.16-0.345s-0.054-0.242-0.16-0.337c-0.107-0.096-0.232-0.143-0.379-0.143H81.49
		c-0.146,0-0.272,0.047-0.379,0.143c-0.107,0.095-0.16,0.207-0.16,0.337s0.053,0.245,0.16,0.345c0.106,0.101,0.232,0.15,0.379,0.15
		h10.662C92.298,39.784,92.423,39.734,92.531,39.633z"/>
	<path d="M80.673,64.401c-1.629-0.83-3.15-1.939-4.564-3.33c0.291-0.21,0.611-0.449,0.96-0.72c0.348-0.271,0.69-0.542,1.027-0.817
		s0.623-0.518,0.858-0.728c0.113-0.11,0.169-0.232,0.169-0.368c0-0.135-0.062-0.257-0.185-0.367c-0.113-0.1-0.248-0.145-0.404-0.135
		c-0.158,0.01-0.287,0.064-0.388,0.165c-0.191,0.181-0.444,0.41-0.759,0.69c-0.314,0.279-0.645,0.563-0.993,0.848
		c-0.349,0.284-0.663,0.537-0.943,0.757c-0.314-0.351-0.618-0.712-0.909-1.087c-0.293-0.375-0.563-0.758-0.809-1.148v-1.395h6.418
		c0.145,0,0.266-0.045,0.361-0.135s0.143-0.195,0.143-0.315c0-0.13-0.047-0.239-0.143-0.33c-0.096-0.09-0.217-0.135-0.361-0.135
		h-6.418v-2.505c0-0.141-0.054-0.256-0.16-0.346c-0.107-0.09-0.233-0.135-0.379-0.135c-0.146,0-0.272,0.045-0.379,0.135
		c-0.107,0.09-0.16,0.205-0.16,0.346v2.505h-6.384c-0.146,0-0.267,0.045-0.362,0.135c-0.096,0.091-0.143,0.2-0.143,0.33
		c0,0.12,0.047,0.226,0.143,0.315s0.217,0.135,0.362,0.135h6.384v7.68c0,0.32-0.048,0.563-0.143,0.728
		c-0.096,0.165-0.273,0.28-0.531,0.345c-0.258,0.065-0.641,0.107-1.146,0.128c-0.19,0.01-0.339,0.065-0.446,0.165
		s-0.154,0.22-0.143,0.359c0.021,0.141,0.086,0.256,0.193,0.346c0.106,0.09,0.244,0.135,0.412,0.135c0.752,0,1.336-0.07,1.752-0.21
		s0.707-0.365,0.876-0.675c0.169-0.311,0.253-0.725,0.253-1.245v-4.86c0.797,1.181,1.752,2.246,2.863,3.195
		c1.111,0.95,2.246,1.745,3.402,2.385c0.146,0.08,0.301,0.11,0.463,0.09c0.163-0.02,0.301-0.094,0.413-0.225
		c0.09-0.12,0.112-0.25,0.067-0.391C80.898,64.577,80.808,64.471,80.673,64.401z"/>
	<path d="M69.06,59.938c0.229,0.236,0.424,0.443,0.58,0.623c0.102,0.1,0.229,0.16,0.379,0.18c0.152,0.021,0.284-0.015,0.396-0.104
		c0.135-0.091,0.211-0.202,0.228-0.338c0.017-0.135-0.025-0.253-0.126-0.353c-0.146-0.17-0.335-0.372-0.564-0.607
		c-0.23-0.234-0.472-0.475-0.725-0.72c-0.252-0.245-0.486-0.458-0.699-0.638c-0.112-0.1-0.244-0.152-0.396-0.157
		s-0.289,0.037-0.413,0.128c-0.111,0.08-0.176,0.189-0.193,0.33c-0.017,0.14,0.031,0.254,0.143,0.344
		c0.203,0.171,0.428,0.373,0.674,0.607C68.591,59.469,68.83,59.704,69.06,59.938z"/>
	<path d="M71.847,61.731c0.258-0.18,0.297-0.4,0.118-0.66c-0.079-0.1-0.188-0.157-0.329-0.172c-0.141-0.016-0.271,0.018-0.396,0.098
		c-0.314,0.209-0.71,0.457-1.188,0.742s-0.982,0.577-1.516,0.877c-0.534,0.301-1.05,0.578-1.55,0.833s-0.924,0.458-1.271,0.607
		c-0.146,0.069-0.247,0.167-0.303,0.292c-0.057,0.125-0.045,0.248,0.033,0.367c0.09,0.131,0.211,0.213,0.361,0.248
		c0.152,0.035,0.301,0.018,0.447-0.053c0.404-0.189,0.859-0.417,1.364-0.682c0.505-0.266,1.019-0.548,1.541-0.848
		c0.522-0.301,1.019-0.593,1.491-0.878C71.123,62.219,71.521,61.961,71.847,61.731z"/>
	<path d="M97.559,65.542c-0.062-0.15-0.165-0.25-0.312-0.301c-0.91-0.359-1.769-0.832-2.577-1.417s-1.519-1.247-2.131-1.987
		s-1.092-1.53-1.44-2.371c-0.348-0.84-0.521-1.699-0.521-2.579v-3.226c0-0.149-0.051-0.27-0.152-0.359
		c-0.101-0.09-0.229-0.135-0.387-0.135s-0.289,0.045-0.396,0.135c-0.106,0.09-0.16,0.21-0.16,0.359v3.51
		c0,1.811-0.569,3.41-1.709,4.801s-2.766,2.516-4.876,3.375c-0.146,0.07-0.247,0.172-0.304,0.307
		c-0.057,0.136-0.039,0.268,0.051,0.398c0.09,0.129,0.217,0.207,0.379,0.232s0.317,0.002,0.463-0.068
		c1.774-0.789,3.229-1.734,4.363-2.834c1.134-1.1,1.892-2.391,2.273-3.87c0.562,1.53,1.398,2.84,2.51,3.93
		c1.111,1.091,2.442,2,3.992,2.729c0.156,0.07,0.322,0.086,0.496,0.045c0.175-0.039,0.307-0.125,0.396-0.254
		C97.607,65.831,97.621,65.691,97.559,65.542z"/>
	<path d="M36.927,5.232c0.108,0,0.2-0.036,0.276-0.108c0.076-0.072,0.115-0.156,0.115-0.252c0-0.096-0.039-0.178-0.115-0.246
		s-0.168-0.102-0.276-0.102h-5.174c-0.107,0-0.2,0.034-0.276,0.102c-0.077,0.068-0.115,0.15-0.115,0.246
		c0,0.096,0.038,0.18,0.115,0.252c0.076,0.072,0.168,0.108,0.276,0.108H36.927z"/>
	<path d="M32.386,8.436c0.081-0.072,0.117-0.156,0.108-0.252c-0.009-0.096-0.049-0.18-0.121-0.252
		c-0.063-0.064-0.155-0.098-0.276-0.102s-0.222,0.03-0.303,0.102c-0.207,0.176-0.476,0.376-0.809,0.6
		c-0.333,0.224-0.678,0.44-1.038,0.648c-0.359,0.208-0.687,0.38-0.983,0.516c-0.117,0.056-0.187,0.136-0.209,0.24
		s-0.002,0.2,0.061,0.288c0.072,0.096,0.168,0.152,0.29,0.168c0.121,0.016,0.24-0.004,0.357-0.06
		c0.323-0.16,0.665-0.348,1.024-0.564c0.359-0.216,0.705-0.44,1.038-0.672C31.856,8.864,32.144,8.644,32.386,8.436z"/>
	<path d="M39.797,6.552h-10.86c-0.108,0-0.202,0.034-0.283,0.102c-0.081,0.068-0.121,0.154-0.121,0.258
		c0,0.096,0.041,0.18,0.121,0.252c0.081,0.072,0.175,0.108,0.283,0.108h5.026v2.232c0,0.224-0.029,0.396-0.087,0.516
		c-0.059,0.12-0.171,0.202-0.337,0.246c-0.167,0.043-0.416,0.07-0.748,0.078c-0.135,0.008-0.245,0.05-0.33,0.126
		c-0.085,0.076-0.124,0.17-0.114,0.282c0.009,0.104,0.056,0.19,0.141,0.258s0.191,0.102,0.317,0.102c0.772,0,1.302-0.112,1.59-0.336
		s0.431-0.628,0.431-1.212V7.272h4.972c0.117,0,0.213-0.036,0.29-0.108c0.076-0.072,0.114-0.156,0.114-0.252
		c0-0.104-0.038-0.19-0.114-0.258C40.01,6.586,39.914,6.552,39.797,6.552z"/>
	<path d="M40.458,4.884c-0.979-0.232-1.864-0.564-2.655-0.996c-0.791-0.432-1.464-0.956-2.021-1.572h4.11
		c0.107,0,0.2-0.034,0.276-0.102c0.076-0.068,0.115-0.15,0.115-0.246c0-0.096-0.039-0.178-0.115-0.246S39.999,1.62,39.892,1.62
		h-5.727c0.207-0.36,0.377-0.728,0.512-1.104c0.045-0.096,0.041-0.188-0.014-0.276c-0.054-0.088-0.139-0.148-0.256-0.18
		c-0.117-0.032-0.227-0.024-0.33,0.024c-0.104,0.048-0.178,0.124-0.223,0.228c-0.09,0.232-0.188,0.458-0.296,0.678
		c-0.107,0.22-0.225,0.43-0.35,0.63h-4.353c-0.108,0-0.2,0.034-0.276,0.102s-0.114,0.15-0.114,0.246
		c0,0.096,0.038,0.178,0.114,0.246c0.076,0.068,0.168,0.102,0.276,0.102h3.84c-0.494,0.6-1.105,1.118-1.833,1.554
		s-1.572,0.802-2.533,1.098c-0.126,0.04-0.218,0.102-0.276,0.186s-0.065,0.182-0.02,0.294c0.054,0.128,0.139,0.204,0.256,0.228
		s0.233,0.016,0.351-0.024c2.281-0.744,3.97-1.856,5.066-3.336h1.146c0.583,0.8,1.34,1.474,2.271,2.022
		c0.93,0.548,1.929,0.974,2.998,1.278c0.144,0.041,0.276,0.038,0.397-0.006s0.204-0.126,0.249-0.246
		c0.036-0.112,0.025-0.214-0.034-0.306C40.675,4.966,40.583,4.908,40.458,4.884z"/>
	<path d="M38.294,9.762c0.364,0.22,0.703,0.41,1.018,0.57c0.117,0.056,0.238,0.076,0.364,0.06c0.126-0.016,0.22-0.072,0.283-0.168
		c0.072-0.088,0.094-0.184,0.067-0.288c-0.027-0.104-0.095-0.18-0.202-0.228c-0.296-0.136-0.627-0.31-0.991-0.522
		s-0.714-0.432-1.051-0.66s-0.609-0.43-0.815-0.606c-0.081-0.072-0.18-0.104-0.296-0.096c-0.117,0.008-0.211,0.044-0.283,0.108
		c-0.072,0.064-0.11,0.144-0.115,0.24c-0.005,0.096,0.034,0.18,0.115,0.252c0.233,0.2,0.519,0.418,0.855,0.654
		S37.931,9.542,38.294,9.762z"/>
	<path d="M53.407,10.164c-0.638-0.16-1.269-0.37-1.894-0.63c-0.624-0.26-1.206-0.574-1.745-0.942
		c0.314-0.112,0.663-0.236,1.044-0.372c0.382-0.136,0.753-0.274,1.112-0.414c0.358-0.14,0.664-0.266,0.916-0.378
		C52.966,7.38,53.042,7.304,53.07,7.2c0.027-0.104,0.01-0.204-0.054-0.3c-0.054-0.096-0.142-0.156-0.263-0.18
		c-0.121-0.024-0.236-0.004-0.344,0.06c-0.188,0.104-0.424,0.216-0.707,0.336c-0.283,0.12-0.582,0.24-0.896,0.36
		c-0.314,0.12-0.62,0.234-0.916,0.342s-0.553,0.198-0.768,0.27c-0.252-0.224-0.49-0.464-0.714-0.72
		c-0.225-0.256-0.427-0.532-0.606-0.828h1.334c0.566,0,1.018-0.06,1.354-0.18s0.577-0.32,0.721-0.6
		c0.144-0.28,0.216-0.656,0.216-1.128V3.576c0-0.712-0.169-1.21-0.505-1.494c-0.338-0.284-0.933-0.426-1.786-0.426h-1.01v-1.26
		c0-0.12-0.045-0.216-0.135-0.288C47.9,0.036,47.792,0,47.667,0c-0.117,0-0.222,0.036-0.316,0.108s-0.142,0.168-0.142,0.288v1.26
		h-1.038c-0.844,0-1.439,0.142-1.785,0.426c-0.346,0.284-0.519,0.782-0.519,1.494v6.348c-0.333,0.056-0.656,0.11-0.97,0.162
		s-0.593,0.098-0.835,0.138c-0.135,0.016-0.231,0.064-0.29,0.144c-0.059,0.08-0.079,0.168-0.061,0.264
		c0.018,0.104,0.076,0.184,0.175,0.24c0.099,0.056,0.216,0.076,0.351,0.06c0.377-0.064,0.813-0.144,1.307-0.24
		c0.494-0.096,1.001-0.2,1.522-0.312c0.521-0.112,1.022-0.222,1.502-0.33s0.9-0.21,1.26-0.306c0.279-0.072,0.386-0.216,0.324-0.432
		c-0.027-0.088-0.085-0.156-0.175-0.204s-0.198-0.056-0.323-0.024c-0.333,0.088-0.759,0.192-1.28,0.312s-1.06,0.236-1.617,0.348
		V6.54h2.17c0.583,1.104,1.401,2,2.452,2.688c1.051,0.688,2.264,1.244,3.638,1.668c0.135,0.04,0.271,0.038,0.411-0.006
		c0.139-0.044,0.227-0.122,0.263-0.234c0.045-0.104,0.04-0.204-0.014-0.3S53.533,10.196,53.407,10.164z M44.756,3.6
		c0-0.336,0.045-0.596,0.135-0.78c0.09-0.184,0.243-0.31,0.458-0.378c0.215-0.068,0.516-0.102,0.903-0.102h2.816
		c0.386,0,0.689,0.034,0.91,0.102s0.375,0.194,0.465,0.378c0.09,0.184,0.135,0.444,0.135,0.78v0.132h-5.822V3.6z M44.756,5.856
		v-1.44h5.822v0.18c0,0.336-0.045,0.594-0.135,0.774c-0.09,0.18-0.245,0.306-0.465,0.378c-0.22,0.072-0.523,0.108-0.91,0.108H44.756
		z"/>
	<path d="M62.593,3.395c-0.672-0.297-1.436-0.445-2.291-0.445c-0.7,0-1.354,0.101-1.958,0.302c-0.605,0.202-1.135,0.488-1.587,0.858
		c-0.453,0.37-0.808,0.807-1.063,1.309c-0.256,0.502-0.383,1.051-0.383,1.645c0,0.492,0.086,0.932,0.26,1.32
		c0.172,0.389,0.411,0.693,0.716,0.913c0.305,0.22,0.655,0.33,1.05,0.33c0.354,0,0.699-0.145,1.037-0.434
		c0.338-0.29,0.648-0.701,0.934-1.232c0.283-0.531,0.526-1.166,0.729-1.903c0.201-0.737,0.344-1.553,0.426-2.447
		c0.708,0.022,1.326,0.161,1.854,0.418c0.526,0.257,0.936,0.601,1.229,1.034c0.292,0.433,0.438,0.928,0.438,1.485
		c0,0.821-0.272,1.496-0.815,2.024c-0.543,0.528-1.293,0.898-2.248,1.111c-0.107,0.029-0.189,0.084-0.247,0.165
		s-0.069,0.172-0.037,0.275c0.024,0.095,0.085,0.167,0.179,0.214c0.096,0.048,0.196,0.061,0.303,0.039
		c1.12-0.256,2.01-0.713,2.668-1.369c0.659-0.656,0.988-1.476,0.988-2.458c0-0.726-0.195-1.359-0.586-1.898
		C63.795,4.11,63.264,3.692,62.593,3.395z M59.351,5.688c-0.165,0.638-0.36,1.199-0.587,1.683s-0.464,0.862-0.71,1.133
		c-0.248,0.271-0.486,0.407-0.717,0.407c-0.354,0-0.65-0.167-0.889-0.5c-0.24-0.333-0.359-0.783-0.359-1.348
		c0-0.542,0.139-1.06,0.414-1.551s0.684-0.908,1.223-1.249s1.196-0.548,1.971-0.622C59.63,4.368,59.515,5.05,59.351,5.688z"/>
</g>
<g>
	<path fill="#8966A9" d="M94.813,14.184H28.404c-1.756,0-3.185,1.429-3.185,3.185v7.926c-0.436-0.713-1.078-1.375-1.974-1.375H9.097
		c-0.207,0-0.375,0.168-0.375,0.375s0.168,0.375,0.375,0.375h14.149c0.947,0,1.57,1.372,1.794,1.962
		c0.034,0.089,0.102,0.148,0.18,0.189v20.041c0,1.757,1.429,3.185,3.185,3.185h66.409c1.756,0,3.185-1.428,3.185-3.185V17.368
		C97.998,15.612,96.569,14.184,94.813,14.184z M97.297,46.861c0,1.37-1.114,2.485-2.484,2.485H28.404
		c-1.37,0-2.484-1.115-2.484-2.485V17.368c0-1.37,1.114-2.484,2.484-2.484h66.409c1.37,0,2.484,1.114,2.484,2.484V46.861z"/>
	<path fill="#8966A9" d="M9.315,27.786c-0.169-0.122-0.403-0.083-0.523,0.086c-0.212,0.295-5.184,7.287-4.908,11.896
		c-0.002,0.367,0.153,0.688,0.452,0.93c0.536,0.434,1.542,0.578,2.625,0.578c1.441,0,3.017-0.256,3.794-0.428
		c1.181-0.262,1.65-1.165,2.027-1.891c0.265-0.51,0.493-0.949,0.893-1.09c0.489-0.172,1.992-0.098,3.318-0.031
		c2.29,0.115,3.719,0.163,4.227-0.27c0.617-0.523,0.736-3.268,0.748-8.483c0.002-0.872,0.004-1.599,0.02-2.034h-0.001
		c0.005-0.092-0.015-0.188-0.059-0.258c-0.139-0.216-0.427-0.667-11.549-0.128c-0.207,0.01-0.367,0.186-0.356,0.393
		c0.01,0.207,0.208,0.377,0.393,0.356c4.584-0.222,9.71-0.344,10.817-0.161c-0.01,0.446-0.012,1.085-0.014,1.829
		c-0.005,2.206-0.017,7.373-0.483,7.915c-0.311,0.261-2.434,0.155-3.704,0.092c-1.596-0.08-2.977-0.15-3.604,0.072
		c-0.68,0.238-1,0.855-1.31,1.451c-0.352,0.678-0.684,1.317-1.523,1.504c-1.832,0.405-4.937,0.686-5.785-0.001
		c-0.121-0.098-0.174-0.202-0.174-0.366c-0.261-4.369,4.718-11.369,4.768-11.439C9.522,28.141,9.484,27.907,9.315,27.786z"/>
	<path fill="#8966A9" d="M43.132,54.221H26.528c-0.207,0-0.375,0.168-0.375,0.375s0.168,0.375,0.375,0.375h16.604
		c0.207,0,0.375-0.168,0.375-0.375S43.339,54.221,43.132,54.221z"/>
	<path fill="#8966A9" d="M62.82,52.249c-0.207,0-0.375,0.168-0.375,0.375c0,1.088-0.439,1.267-0.402,1.271h-5.08
		c-0.207,0-0.375,0.168-0.375,0.375s0.168,0.375,0.375,0.375l5.16-0.008c0.044-0.008,1.072-0.24,1.072-2.014
		C63.195,52.417,63.027,52.249,62.82,52.249z"/>
	<path fill="#8966A9" d="M18.84,49.935c-0.207,0-0.375,0.168-0.375,0.375s0.168,0.375,0.375,0.375c2.812,0,5.1,2.288,5.1,5.1
		s-2.288,5.1-5.1,5.1s-5.1-2.288-5.1-5.1c0-1.208,0.43-2.38,1.21-3.299c0.134-0.157,0.115-0.395-0.043-0.528
		c-0.156-0.133-0.393-0.115-0.528,0.043c-0.656,0.772-1.09,1.701-1.279,2.687c-0.009-0.199-0.171-0.359-0.372-0.359h-2.006v-1.343
		c0.114-0.016,0.219-0.074,0.277-0.176c0.704-1.238,2.838-4.545,4.248-4.98c1.774-0.551,8.29-0.119,8.355-0.115
		c0.195,0.016,0.385-0.143,0.399-0.35c0.014-0.207-0.142-0.385-0.349-0.398c-0.274-0.021-6.722-0.443-8.627,0.146
		c-1.788,0.553-4.006,4.175-4.568,5.137H6.233c-0.555,0-0.959-0.129-1.17-0.372c-0.232-0.269-0.185-0.621-0.18-0.669
		c0.001-0.014,0.053-1.478,0-3.354c-0.03-1.055-0.221-1.661-0.601-1.906c-0.166-0.106-0.337-0.122-0.468-0.097H1.175
		c-0.207,0-0.375,0.168-0.375,0.375S0.968,46.6,1.175,46.6h2.687c0.011,0,0.022,0,0.033-0.002c0.057,0.074,0.212,0.359,0.238,1.276
		c0.052,1.829,0.002,3.259,0.005,3.259c-0.012,0.072-0.099,0.695,0.347,1.222c0.362,0.427,0.95,0.644,1.748,0.644h3.74v1.896H2.568
		c-0.563,0-0.983-0.162-1.286-0.495c-0.64-0.707-0.524-1.949-0.521-1.999v-2.564h2.161c0.207,0,0.375-0.168,0.375-0.375
		s-0.168-0.375-0.375-0.375H0.761v-3.628c0-12.942,7.11-19.792,7.182-19.86c0.151-0.142,0.158-0.379,0.016-0.53
		c-0.142-0.151-0.379-0.157-0.53-0.017c-0.074,0.07-7.418,7.124-7.418,20.407l0.002,6.904c-0.006,0.063-0.152,1.58,0.71,2.537
		c0.446,0.494,1.067,0.745,1.845,0.745h7.78c0.207,0,0.375-0.168,0.375-0.375v-0.191h2.006c0.155,0,0.287-0.094,0.345-0.228
		c-0.05,0.308-0.083,0.619-0.083,0.935c0,3.226,2.624,5.85,5.85,5.85s5.85-2.624,5.85-5.85S22.066,49.935,18.84,49.935z"/>
	<path fill="#8966A9" d="M20.39,57.247c0.174,0.113,0.407,0.064,0.519-0.108c0.264-0.402,0.403-0.87,0.403-1.354
		c0-1.363-1.109-2.472-2.472-2.472c-1.363,0-2.472,1.108-2.472,2.472s1.109,2.472,2.472,2.472c0.207,0,0.375-0.168,0.375-0.375
		s-0.168-0.375-0.375-0.375c-0.95,0-1.722-0.771-1.722-1.722s0.772-1.722,1.722-1.722c0.949,0,1.722,0.771,1.722,1.722
		c0,0.337-0.097,0.663-0.28,0.942C20.168,56.901,20.216,57.133,20.39,57.247z"/>
	<path fill="#8966A9" d="M53.97,51.649c-0.146,0.146-0.146,0.383,0,0.529c0.964,0.963,1.494,2.244,1.494,3.606
		s-0.53,2.644-1.494,3.606c-0.963,0.963-2.243,1.493-3.605,1.493s-2.643-0.53-3.606-1.493c-0.963-0.963-1.494-2.244-1.494-3.606
		s0.53-2.644,1.494-3.606c0.146-0.146,0.146-0.383,0-0.529s-0.384-0.146-0.53,0c-1.105,1.104-1.713,2.573-1.713,4.136
		s0.608,3.032,1.713,4.136c1.104,1.105,2.574,1.714,4.136,1.714s3.031-0.608,4.137-1.714c1.104-1.104,1.713-2.573,1.713-4.136
		s-0.608-3.032-1.713-4.136C54.355,51.502,54.117,51.502,53.97,51.649z"/>
	<path fill="#8966A9" d="M49.147,57.002c-0.146-0.146-0.384-0.146-0.53,0s-0.146,0.384,0,0.53c0.482,0.481,1.115,0.724,1.748,0.724
		c0.633,0,1.266-0.242,1.748-0.724c0.964-0.964,0.964-2.532,0-3.496s-2.532-0.964-3.496,0c-0.146,0.146-0.146,0.384,0,0.53
		s0.384,0.146,0.53,0c0.672-0.672,1.764-0.672,2.436,0c0.671,0.672,0.671,1.764,0,2.436C50.911,57.674,49.819,57.674,49.147,57.002z
		"/>
</g>
</svg>
