<?xml version="1.0" encoding="utf-8"?>
<!-- Generator: Adobe Illustrator 15.0.0, SVG Export Plug-In . SVG Version: 6.00 Build 0)  -->
<!DOCTYPE svg PUBLIC "-//W3C//DTD SVG 1.1//EN" "http://www.w3.org/Graphics/SVG/1.1/DTD/svg11.dtd">
<svg version="1.1" id="レイヤー_1" xmlns="http://www.w3.org/2000/svg" xmlns:xlink="http://www.w3.org/1999/xlink" x="0px"
	 y="0px" width="53.471px" height="53.469px" viewBox="0 0 53.471 53.469" enable-background="new 0 0 53.471 53.469"
	 xml:space="preserve">
<g id="グループ_40756" transform="translate(-146.576 -335.207)">
	<path id="パス_45982" d="M190.355,356.023c-3.62-0.362-7.06,0.723-8.51,3.085l-3.03,0.027c0.361-2.953,4.395-4.38,9.443-6.953
		c6.817-3.474,6.009-6.506-1.08-11.344c-1.326-0.905-2.292,0-0.422,1.697c3.876,3.5,3.258,4.404,1.628,5.853
		c-1.115,0.992-2.159,1.609-2.714,1.208c-1.273-1.257-2.426-2.63-3.441-4.104c-0.844-0.906-1.981-0.396-0.965,1.267
		c1.329,2.172,2.837,3.802,1.146,4.888c-1.69,1.085-4.164,2.081-5.707,3.801c-1.027,0.982-1.654,2.31-1.757,3.727l-1.631,0.014
		l-1.63-0.014c-0.105-1.417-0.73-2.745-1.757-3.727c-1.543-1.721-4.011-2.716-5.708-3.801c-1.697-1.086-0.181-2.716,1.146-4.888
		c1.017-1.664-0.121-2.173-0.965-1.267c-1.016,1.473-2.167,2.847-3.44,4.104c-0.553,0.401-1.6-0.216-2.715-1.208
		c-1.63-1.448-2.246-2.354,1.629-5.853c1.872-1.697,0.905-2.595-0.422-1.697c-7.096,4.838-7.903,7.867-1.08,11.344
		c5.048,2.573,9.082,4,9.444,6.953l-3.031-0.027c-1.448-2.354-4.889-3.44-8.509-3.085c-3.621,0.355,0.723,9.411,7.061,9.777
		c0,0-1.424,17.288,9.978,17.288c11.401,0,9.977-17.288,9.977-17.288C189.63,365.437,193.977,356.384,190.355,356.023z
		 M168.429,369.42c-0.7,0-1.266-0.568-1.266-1.268s0.566-1.266,1.266-1.266c0.7,0,1.267,0.566,1.267,1.266
		C169.696,368.852,169.128,369.42,168.429,369.42L168.429,369.42L168.429,369.42z M178.205,369.42c-0.7,0-1.267-0.568-1.267-1.268
		s0.566-1.266,1.267-1.266c0.699,0,1.267,0.566,1.267,1.266S178.903,369.417,178.205,369.42L178.205,369.42z"/>
</g>
</svg>
