<?xml version="1.0" encoding="utf-8"?>
<!-- Generator: Adobe Illustrator 15.0.0, SVG Export Plug-In . SVG Version: 6.00 Build 0)  -->
<!DOCTYPE svg PUBLIC "-//W3C//DTD SVG 1.1//EN" "http://www.w3.org/Graphics/SVG/1.1/DTD/svg11.dtd">
<svg version="1.1" id="レイヤー_1" xmlns="http://www.w3.org/2000/svg" xmlns:xlink="http://www.w3.org/1999/xlink" x="0px"
	 y="0px" width="53.471px" height="53.469px" viewBox="0 0 53.471 53.469" enable-background="new 0 0 53.471 53.469"
	 xml:space="preserve">
<path id="パス_42" d="M49.776,38.459h-8.1c-0.054-0.324-0.145-0.643-0.271-0.949h7.242V9.901H17.747v7.615h-6.836
	c-1.906,0-1.906-0.086-3.118,2.07c-1.209,2.157-2.822,5.988-3.634,7.624c-0.452,1.366-0.6,2.812-0.437,4.243v8.222h5.571
	c0.268,2.399,2.437,4.132,4.837,3.859c2.031-0.229,3.636-1.831,3.863-3.859h1.83v-0.179h13.179c0.167,2.41,2.256,4.228,4.666,4.063
	c2.175-0.151,3.909-1.885,4.062-4.063h8.047V38.459z M13.645,41.338c-1.188,0-2.153-0.961-2.153-2.149
	c-0.001-1.187,0.961-2.149,2.15-2.149c1.187-0.004,2.151,0.959,2.151,2.146C15.791,40.373,14.832,41.337,13.645,41.338
	 M8.226,30.328H6.061v-3.465l3.12-6.23h7.097l0.432,6.23C13.528,26.829,10.472,28.079,8.226,30.328 M19.823,37.514h13.499
	c-0.126,0.306-0.217,0.624-0.272,0.949H19.823V37.514z M37.474,41.34c-1.188,0.061-2.195-0.853-2.256-2.038
	c-0.059-1.187,0.853-2.196,2.04-2.254c1.187-0.061,2.195,0.853,2.254,2.039c0.004,0.074,0.004,0.148,0,0.224
	c-0.065,1.096-0.943,1.968-2.038,2.021"/>
</svg>
