<?xml version="1.0" encoding="utf-8"?>
<!-- Generator: Adobe Illustrator 15.0.0, SVG Export Plug-In . SVG Version: 6.00 Build 0)  -->
<!DOCTYPE svg PUBLIC "-//W3C//DTD SVG 1.1//EN" "http://www.w3.org/Graphics/SVG/1.1/DTD/svg11.dtd">
<svg version="1.1" id="レイヤー_1" xmlns="http://www.w3.org/2000/svg" xmlns:xlink="http://www.w3.org/1999/xlink" x="0px"
	 y="0px" width="317.111px" height="89.79px" viewBox="0 0 317.111 89.79" enable-background="new 0 0 317.111 89.79"
	 xml:space="preserve">
<path id="パス_45957" fill="#FFFFFF" stroke="#1A1311" stroke-width="3" stroke-linecap="round" stroke-linejoin="round" d="
	M10.899,56.307c10.227,8.225,30.399,12.152,48.665,13.208c21.608,1.248,43.842,0.537,66.006-0.238
	c7.077-0.038,14.5-0.936,20.848,0.614c2.841,0.712,5.533,1.92,7.952,3.57c7.783,5.154,12.652,10.033,23.723,13.683
	c0.878,0.289,3.136,0.7,3.725,1.146c-24.964-20.519,19.754-18.555,23.038-18.385l-0.068-0.006c21.641,1.383,43.4,2.549,63.815-1.167
	c28.07-5.11,48.016-17.2,46.968-32.866c-1.621-24.205-47.771-32.96-89-32.632l-0.937,0.009c-23.117,0.261-46.108,2.352-69.225,2.041
	c-43.128-0.579-95.2-11.243-131.411,5.783C1.877,21.94-6.508,42.309,10.899,56.307z M205.049,69.917l-0.193-0.012
	C204.92,69.913,204.984,69.917,205.049,69.917L205.049,69.917z"/>
</svg>
